<svg width="173" height="69" viewBox="0 0 173 69" fill="none" xmlns="http://www.w3.org/2000/svg">
<path d="M16.7917 31.5284C16.7917 28.1614 17.3195 25.1824 18.3776 22.5912C19.4357 20 20.8817 17.8311 22.7182 16.0816C24.5521 14.3322 26.7105 13.005 29.1961 12.0973C31.6791 11.1896 34.3652 10.7383 37.2598 10.7383C40.1518 10.7383 42.8406 11.1922 45.3236 12.0973C47.8066 13.005 49.9756 14.3322 51.8332 16.0816C53.6882 17.8311 55.1473 20 56.2054 22.5912C57.2635 25.1824 57.7913 28.1614 57.7913 31.5284C57.7913 34.8953 57.2741 37.8875 56.2371 40.4998C55.2001 43.1121 53.7647 45.2916 51.9308 47.0411C50.0943 48.7905 47.9253 50.1177 45.4212 51.0254C42.9171 51.9331 40.1967 52.3843 37.2598 52.3843C34.323 52.3843 31.6026 51.9199 29.0985 50.9911C26.5944 50.0623 24.436 48.714 22.6206 46.9434C20.8078 45.1729 19.3829 42.9933 18.3459 40.4022C17.3116 37.811 16.7917 34.8557 16.7917 31.5284ZM28.452 31.5284C28.452 35.4573 29.2515 38.3942 30.8479 40.3362C32.4443 42.2783 34.5816 43.2493 37.2598 43.2493C39.9803 43.2493 42.1387 42.2783 43.7378 40.3362C45.3342 38.3942 46.1337 35.4573 46.1337 31.5284C46.1337 27.6416 45.3447 24.7285 43.7694 22.7838C42.1915 20.8418 40.0463 19.8681 37.3258 19.8681C34.6476 19.8681 32.4997 20.8286 30.8822 22.7495C29.2594 24.6758 28.452 27.5994 28.452 31.5284Z" fill="url(#paint0_linear_1982_8662)"/>
<path d="M27.7869 50.3369C27.2169 48.825 26.8237 47.1916 27.0823 45.5979C27.3409 44.0015 28.3674 42.4552 29.9031 41.9512C30.7976 41.6583 31.7158 41.7349 32.6394 41.9618C32.6394 41.9618 35.3704 43.9988 39.492 43.0041C39.492 43.0041 39.5315 42.6003 39.4629 42.289C38.4998 37.9009 34.8031 34.753 30.5891 33.8532C23.0056 32.233 14.3244 38.1252 14.4801 46.2523C14.5223 48.4925 15.1846 50.7406 16.4433 52.6009C19.2904 56.8095 24.7392 58.5299 29.5811 57.2159C32.3042 56.4771 34.46 54.6353 36.1277 52.3581C30.2593 51.9201 27.7869 50.3369 27.7869 50.3369Z" fill="url(#paint1_linear_1982_8662)"/>
<path d="M26.903 29.3334C27.7791 29.7899 28.4941 30.0141 28.4941 30.0141C28.4941 30.0141 30.5206 29.2146 31.3756 27.0325C32.9165 23.0982 32.3967 18.3486 26.0903 14.8841C22.6152 12.9763 17.9764 13.2111 15.0897 15.929C12.203 18.6468 11.4853 23.399 13.467 26.8319C13.963 27.6921 15.8233 29.3861 16.8497 29.6711C16.8497 29.6711 17.425 28.7924 18.9633 28.3993C21.499 27.7528 24.5757 28.1222 26.903 29.3334Z" fill="url(#paint2_linear_1982_8662)"/>
<path d="M41.4293 36.6372C40.1047 34.9485 39.5321 32.703 40.1179 30.6105C42.242 23.0323 53.7202 25.4044 59.388 23.4861C62.1032 22.5679 64.2511 20.6073 64.1297 17.5597C64.011 14.5833 61.8446 11.3008 58.7838 10.6781C57.5172 10.4195 55.8549 10.9762 55.591 12.4011C55.5066 12.8629 55.6464 13.351 55.9261 13.7257C56.1398 14.016 55.8522 14.4012 55.5066 14.2983C54.9947 14.1426 54.5329 13.8577 54.211 13.4407C52.823 11.6491 53.7545 9.11598 55.7678 7.94177C59.3801 5.83612 64.2933 7.25044 67.0164 10.7308C68.0138 12.0053 68.787 13.4671 69.2645 15.016C70.481 18.974 70.0007 23.4782 67.808 27.0114C64.726 31.9853 58.8524 32.8006 53.546 33.3574C51.1818 33.6054 48.8176 34.1516 46.5483 34.8561C46.2369 34.9538 45.857 35.1596 45.857 35.1596C45.7198 35.9802 45.6116 37.0304 44.7936 38.6663C43.4532 38.3998 42.3238 37.7771 41.4293 36.6372Z" fill="url(#paint3_linear_1982_8662)"/>
<path d="M72.5133 40.0412C71.225 40.0412 70.2384 40.4345 69.5501 41.2211C68.8653 42.0077 68.5194 43.1197 68.5194 44.5607C68.5194 46.0152 68.8992 47.1374 69.662 47.924C70.4248 48.7106 71.4488 49.1038 72.7371 49.1038C73.422 49.1038 74.0051 49.0123 74.4832 48.8292C74.9612 48.6461 75.4155 48.4359 75.8529 48.202C76.1377 48.4359 76.3581 48.7173 76.5174 49.0428C76.6768 49.3683 76.7548 49.748 76.7548 50.1854C76.7548 50.8702 76.375 51.4534 75.6122 51.9315C74.8493 52.4095 73.6932 52.6468 72.137 52.6468C71.0148 52.6468 69.9604 52.4875 68.9737 52.1688C67.9871 51.8501 67.126 51.3619 66.3869 50.7007C65.6511 50.0396 65.068 49.2022 64.6408 48.1918C64.2136 47.1781 64 45.9711 64 44.5641C64 43.2588 64.2034 42.1094 64.6137 41.1126C65.0239 40.1158 65.5833 39.275 66.2953 38.5901C67.0073 37.9053 67.838 37.3865 68.7941 37.0339C69.7468 36.6813 70.7673 36.5084 71.8556 36.5084C73.3949 36.5084 74.5883 36.7593 75.4325 37.2611C76.2767 37.7629 76.7005 38.4071 76.7005 39.1936C76.7005 39.6276 76.592 40.0039 76.375 40.3226C76.158 40.6413 75.9072 40.8922 75.6224 41.0753C75.1884 40.7905 74.7239 40.5498 74.2289 40.3464C73.7407 40.143 73.1677 40.0412 72.5133 40.0412Z" fill="url(#paint4_linear_1982_8662)"/>
<path d="M79.0164 40.492C78.8977 40.3089 78.7892 40.058 78.6909 39.7393C78.5892 39.4206 78.5417 39.085 78.5417 38.7358C78.5417 38.0848 78.6875 37.6135 78.9825 37.3287C79.2741 37.044 79.6572 36.9016 80.1251 36.9016H91.0694C91.1846 37.0846 91.2965 37.3355 91.3948 37.6542C91.4965 37.9729 91.544 38.3052 91.544 38.6578C91.544 39.3087 91.3982 39.78 91.1033 40.0648C90.8117 40.3496 90.4286 40.492 89.9607 40.492H87.1738V52.0872C86.9907 52.1381 86.6991 52.189 86.3092 52.2364C85.9159 52.2873 85.526 52.311 85.1429 52.311C84.7564 52.311 84.4173 52.2805 84.1258 52.2229C83.8342 52.1652 83.5867 52.0601 83.3867 51.9076C83.1866 51.755 83.0341 51.5482 82.9357 51.2803C82.834 51.0125 82.7866 50.6599 82.7866 50.2259V40.4852H79.0164V40.492Z" fill="url(#paint5_linear_1982_8662)"/>
<path d="M93.5476 44.5604C93.5476 43.2551 93.751 42.1023 94.1613 41.0954C94.5715 40.0918 95.1309 39.251 95.8429 38.5729C96.5549 37.8948 97.389 37.3795 98.3518 37.0303C99.3147 36.6777 100.356 36.5048 101.478 36.5048C102.6 36.5048 103.641 36.6811 104.604 37.0303C105.567 37.3829 106.407 37.8948 107.126 38.5729C107.845 39.251 108.411 40.0918 108.821 41.0954C109.232 42.0989 109.435 43.2551 109.435 44.5604C109.435 45.8657 109.235 47.0252 108.832 48.0356C108.432 49.0493 107.872 49.8935 107.164 50.5716C106.452 51.2497 105.611 51.765 104.641 52.1142C103.671 52.4669 102.617 52.6398 101.478 52.6398C100.339 52.6398 99.2842 52.4601 98.3145 52.1007C97.3449 51.7413 96.5074 51.2192 95.8056 50.5309C95.1038 49.8461 94.5512 48.9985 94.1477 47.9949C93.751 46.9947 93.5476 45.8488 93.5476 44.5604ZM98.067 44.5604C98.067 46.0827 98.3756 47.2219 98.996 47.9745C99.6165 48.7272 100.444 49.1036 101.481 49.1036C102.536 49.1036 103.373 48.7272 103.99 47.9745C104.611 47.2219 104.919 46.0827 104.919 44.5604C104.919 43.055 104.614 41.926 104.004 41.1734C103.393 40.4207 102.559 40.0443 101.505 40.0443C100.467 40.0443 99.6334 40.4173 99.0062 41.1598C98.3823 41.9023 98.067 43.0381 98.067 44.5604Z" fill="url(#paint6_linear_1982_8662)"/>
<path d="M116.969 52.0908C116.785 52.1417 116.494 52.1925 116.104 52.24C115.711 52.2909 115.321 52.3146 114.938 52.3146C114.551 52.3146 114.215 52.2841 113.921 52.2264C113.629 52.1688 113.381 52.0637 113.181 51.9111C112.981 51.7619 112.829 51.5517 112.73 51.2839C112.629 51.0161 112.581 50.6635 112.581 50.2295V38.4071C112.581 38.0545 112.676 37.7832 112.869 37.59C113.063 37.3967 113.324 37.2442 113.659 37.1255C114.229 36.9255 114.877 36.7797 115.606 36.6881C116.334 36.5966 117.067 36.5491 117.803 36.5491C120.111 36.5491 121.878 37.0441 123.098 38.0308C124.319 39.0174 124.929 40.3566 124.929 42.0484C124.929 42.8689 124.8 43.608 124.539 44.2691C124.278 44.9303 123.895 45.4998 123.383 45.9745C122.871 46.4526 122.227 46.8187 121.451 47.0798C120.674 47.3408 119.772 47.4697 118.752 47.4697H116.969V52.0908ZM118.274 44.0318C118.976 44.0318 119.518 43.8691 119.894 43.5436C120.271 43.2181 120.461 42.7197 120.461 42.0484C120.461 41.411 120.264 40.9228 119.871 40.5803C119.477 40.2379 118.904 40.065 118.152 40.065C117.884 40.065 117.664 40.0684 117.487 40.0786C117.311 40.0887 117.131 40.1091 116.948 40.143V44.0318H118.274Z" fill="url(#paint7_linear_1982_8662)"/>
<path d="M141.265 46.5675C141.265 47.4728 141.109 48.2966 140.8 49.0391C140.492 49.785 140.044 50.419 139.458 50.9479C138.871 51.4769 138.159 51.8803 137.325 52.1651C136.488 52.4499 135.542 52.5923 134.487 52.5923C133.433 52.5923 132.487 52.4499 131.65 52.1651C130.812 51.8803 130.1 51.4735 129.517 50.9479C128.931 50.4224 128.483 49.785 128.174 49.0391C127.866 48.2933 127.71 47.4694 127.71 46.5675V36.9794C127.893 36.9455 128.188 36.9014 128.588 36.8404C128.988 36.7828 129.375 36.7523 129.744 36.7523C130.127 36.7523 130.466 36.7828 130.761 36.8404C131.053 36.898 131.3 37.0032 131.5 37.1557C131.7 37.3049 131.853 37.5151 131.951 37.7829C132.053 38.0508 132.101 38.4034 132.101 38.8374V46.4929C132.101 47.2965 132.321 47.9237 132.765 48.3746C133.209 48.8255 133.782 49.0527 134.484 49.0527C135.203 49.0527 135.779 48.8255 136.217 48.3746C136.65 47.9237 136.867 47.2965 136.867 46.4929V36.9794C137.051 36.9455 137.346 36.9014 137.746 36.8404C138.146 36.7828 138.532 36.7523 138.902 36.7523C139.285 36.7523 139.624 36.7828 139.919 36.8404C140.21 36.898 140.458 37.0032 140.658 37.1557C140.858 37.3049 141.011 37.5151 141.109 37.7829C141.211 38.0508 141.258 38.4034 141.258 38.8374V46.5675H141.265Z" fill="url(#paint8_linear_1982_8662)"/>
<path d="M149.399 46.1407C148.663 45.8898 147.992 45.6355 147.391 45.3745C146.788 45.1168 146.269 44.8015 145.835 44.4319C145.401 44.0658 145.062 43.625 144.818 43.1131C144.574 42.6045 144.455 41.9807 144.455 41.2416C144.455 39.821 145.005 38.6818 146.1 37.8274C147.195 36.973 148.731 36.5458 150.707 36.5458C151.426 36.5458 152.097 36.5967 152.714 36.695C153.335 36.7967 153.864 36.9493 154.308 37.1595C154.752 37.3697 155.098 37.6376 155.349 37.963C155.6 38.2885 155.725 38.6716 155.725 39.1056C155.725 39.5396 155.623 39.9125 155.423 40.2211C155.223 40.5296 154.979 40.794 154.694 41.011C154.325 40.7771 153.833 40.5703 153.213 40.3973C152.592 40.221 151.914 40.1329 151.178 40.1329C150.426 40.1329 149.873 40.238 149.521 40.4448C149.168 40.655 148.995 40.9195 148.995 41.2348C148.995 41.4857 149.104 41.6925 149.321 41.8484C149.538 42.0078 149.863 42.1536 150.3 42.2858L151.629 42.713C153.203 43.2148 154.413 43.8556 155.257 44.632C156.101 45.4084 156.525 46.4696 156.525 47.8088C156.525 49.2328 155.966 50.3821 154.844 51.2603C153.721 52.1384 152.074 52.5791 149.9 52.5791C149.131 52.5791 148.415 52.5147 147.754 52.3893C147.093 52.2638 146.517 52.0807 146.022 51.8366C145.527 51.5925 145.144 51.2942 144.866 50.9314C144.591 50.572 144.452 50.1584 144.452 49.6905C144.452 49.2057 144.594 48.792 144.879 48.4462C145.164 48.1038 145.472 47.8393 145.808 47.6562C146.276 48.0258 146.849 48.3411 147.527 48.6089C148.205 48.8768 148.944 49.009 149.748 49.009C150.568 49.009 151.145 48.8836 151.48 48.6327C151.816 48.3818 151.982 48.0902 151.982 47.7546C151.982 47.4189 151.846 47.1646 151.582 46.9883C151.314 46.812 150.938 46.6425 150.453 46.473L149.399 46.1407Z" fill="url(#paint9_linear_1982_8662)"/>
<defs>
<linearGradient id="paint0_linear_1982_8662" x1="31.5698" y1="50.5811" x2="43.0088" y2="12.5805" gradientUnits="userSpaceOnUse">
<stop offset="0.00128142" stop-color="#C04FBA"/>
<stop offset="0.9955" stop-color="#EF5C54"/>
</linearGradient>
<linearGradient id="paint1_linear_1982_8662" x1="23.4769" y1="35.4046" x2="28.3715" y2="48.9896" gradientUnits="userSpaceOnUse">
<stop offset="0.00415427" stop-color="#46ABBA"/>
<stop offset="1" stop-color="#4E4CBF"/>
</linearGradient>
<linearGradient id="paint2_linear_1982_8662" x1="23.2674" y1="14.4267" x2="21.5672" y2="28.3284" gradientUnits="userSpaceOnUse">
<stop offset="0.00415427" stop-color="#46ABBA"/>
<stop offset="1" stop-color="#4E4CBF"/>
</linearGradient>
<linearGradient id="paint3_linear_1982_8662" x1="46.6113" y1="17.5753" x2="60.4413" y2="28.5405" gradientUnits="userSpaceOnUse">
<stop offset="0.00415427" stop-color="#46ABBA"/>
<stop offset="1" stop-color="#4E4CBF"/>
</linearGradient>
<linearGradient id="paint4_linear_1982_8662" x1="77.4217" y1="36.5061" x2="77.4217" y2="52.6494" gradientUnits="userSpaceOnUse">
<stop stop-color="#605ED6"/>
<stop offset="1" stop-color="#5C9AD2"/>
</linearGradient>
<linearGradient id="paint5_linear_1982_8662" x1="92.2239" y1="36.8993" x2="92.2239" y2="52.3135" gradientUnits="userSpaceOnUse">
<stop stop-color="#605ED6"/>
<stop offset="1" stop-color="#5C9AD2"/>
</linearGradient>
<linearGradient id="paint6_linear_1982_8662" x1="110.266" y1="36.5024" x2="110.266" y2="52.6423" gradientUnits="userSpaceOnUse">
<stop stop-color="#605ED6"/>
<stop offset="1" stop-color="#5C9AD2"/>
</linearGradient>
<linearGradient id="paint7_linear_1982_8662" x1="125.575" y1="36.5468" x2="125.575" y2="52.3171" gradientUnits="userSpaceOnUse">
<stop stop-color="#605ED6"/>
<stop offset="1" stop-color="#5C9AD2"/>
</linearGradient>
<linearGradient id="paint8_linear_1982_8662" x1="141.974" y1="36.75" x2="141.974" y2="52.5948" gradientUnits="userSpaceOnUse">
<stop stop-color="#605ED6"/>
<stop offset="1" stop-color="#5C9AD2"/>
</linearGradient>
<linearGradient id="paint9_linear_1982_8662" x1="157.157" y1="36.5435" x2="157.157" y2="52.5817" gradientUnits="userSpaceOnUse">
<stop stop-color="#605ED6"/>
<stop offset="1" stop-color="#5C9AD2"/>
</linearGradient>
</defs>
</svg>
