<svg width="60" height="60" viewBox="0 0 60 60" fill="none" xmlns="http://www.w3.org/2000/svg">
<g id="twemoji:octopus" clip-path="url(#clip0_360_804)">
<path id="Vector" d="M16.6666 20C21.6666 28.3333 16.6666 37.82 11.6666 36.1533C6.6666 34.4867 4.99994 39.4867 9.99994 41.1533C14.9999 42.82 25.7749 40.3783 31.6666 34.4867C33.3333 32.82 34.9999 32.82 34.9999 32.82L16.6666 20Z" fill="#553788"/>
<path id="Vector_2" d="M43.3333 20C38.3333 28.3333 43.3333 37.82 48.3333 36.1533C53.3333 34.4867 55 39.4867 50 41.1533C45 42.82 34.225 40.3783 28.3333 34.4867C26.6667 32.82 25 32.82 25 32.82L43.3333 20Z" fill="#553788"/>
<path id="Vector_3" d="M50.3133 26.6667C45.3133 35 50.3133 44.4867 55.3133 42.82C60.3133 41.1534 61.98 46.1534 56.98 47.82C51.98 49.4867 41.205 47.045 35.3133 41.1534C33.6466 39.4867 31.98 39.4867 31.98 39.4867L50.3133 26.6667ZM9.68662 26.6667C14.6866 35 9.68662 44.4867 4.68662 42.82C-0.313376 41.1534 -1.98004 46.1534 3.01996 47.82C8.01996 49.4867 18.795 47.045 24.6866 41.1534C26.3533 39.4867 28.02 39.4867 28.02 39.4867L9.68662 26.6667Z" fill="#744EAA"/>
<path id="Vector_4" d="M55.3133 52.2917C50.765 53.8083 44.605 42.915 47.2933 34.6617C50.0366 29.2567 51.6666 23.2333 51.6666 18.3333C51.6666 6.36667 41.9666 0 30 0C18.0333 0 8.33329 6.36667 8.33329 18.3333C8.33329 23.2333 9.96329 29.2567 12.7066 34.6617C15.395 42.915 9.23496 53.8083 4.68662 52.2917C-0.313376 50.625 -1.98004 57.2917 3.01996 58.9583C8.01996 60.625 16.87 57.9133 23.02 52.2917C26.6683 48.9583 30.0016 48.9583 30.0016 48.9583C30.0016 48.9583 33.335 48.9583 36.9816 52.2917C43.1316 57.9133 51.9816 60.625 56.9816 58.9583C61.9816 57.2917 60.3133 50.625 55.3133 52.2917Z" fill="#8C5CF1"/>
<path id="Arrow 1" d="M28.5 35C28.5 35.8284 29.1716 36.5 30 36.5C30.8284 36.5 31.5 35.8284 31.5 35L28.5 35ZM31.0607 13.9393C30.4749 13.3536 29.5251 13.3536 28.9393 13.9393L19.3934 23.4853C18.8076 24.0711 18.8076 25.0208 19.3934 25.6066C19.9792 26.1924 20.9289 26.1924 21.5147 25.6066L30 17.1213L38.4853 25.6066C39.0711 26.1924 40.0208 26.1924 40.6066 25.6066C41.1924 25.0208 41.1924 24.0711 40.6066 23.4853L31.0607 13.9393ZM31.5 35L31.5 15L28.5 15L28.5 35L31.5 35Z" fill="white"/>
</g>
<defs>
<clipPath id="clip0_360_804">
<rect width="60" height="60" fill="white"/>
</clipPath>
</defs>
</svg>
