<svg width="30" height="30" viewBox="0 0 30 30" fill="none" xmlns="http://www.w3.org/2000/svg">
<path id="Vector" d="M4.86398 4.86467C2.64108 7.08862 1.21078 9.98155 0.793268 13.0981C0.375752 16.2147 0.793214 20.4999 4.86493 25.1353C6.75492 27.0239 9.13492 28.3465 11.7368 28.9539C14.3387 29.5613 17.0586 29.4292 19.5894 28.5726C22.1202 27.716 24.3611 26.1689 26.0592 24.1061C27.7573 22.0433 28.845 19.5469 29.1993 16.8987C29.5537 14.2504 29.1608 11.5559 28.0648 9.11917C26.9688 6.68246 25.2135 4.60063 22.997 3.10873C20.7805 1.61682 18.1911 0.774232 15.521 0.676093C12.851 0.577954 10.2067 1.22817 7.88665 2.55333" stroke="#8C5CF1" stroke-linecap="round" stroke-linejoin="round"/>
</svg>
