<svg width="399" height="511" viewBox="0 0 399 511" fill="none" xmlns="http://www.w3.org/2000/svg">
<g clip-path="url(#clip0_91_5133)">
<g clip-path="url(#clip1_91_5133)">
<path d="M283.576 25.3013C283.576 25.3013 230.032 14.0165 223.338 42.0519C216.644 70.0874 241.671 103.996 297.301 108.478L244.359 125.176L190.409 108.964C190.409 108.964 165.62 81.715 187.168 40.7636C187.168 40.7636 239.006 -27.8096 283.566 25.3242L283.576 25.3013Z" fill="url(#paint0_linear_91_5133)"/>
<path d="M298.168 106.624C298.168 106.624 397.107 69.1277 398.839 159.504C400.582 249.858 289.977 312.849 187.934 269.78C85.8914 226.711 17.9919 268.315 -9.43988 301.395L-56.6281 268.773L-49.7151 236.743L14.1239 194.946L76.2935 180.684L141.9 199.795L205.78 211.914L247.853 224.622L341.561 202.884L343.099 143.907C343.099 143.907 321.793 121.375 298.124 106.659L298.168 106.624Z" fill="url(#paint1_linear_91_5133)"/>
<path d="M7.01397 177.391C18.0538 172.534 29.8182 168.572 41.4837 165.958C78.7041 157.647 113.475 160.206 148.377 169.291C182.45 178.185 212.786 196.706 246.373 205.986C280.095 215.273 307.401 209.585 327.592 179.845C331.089 174.676 332.632 168.261 331.258 162.186C326.606 141.875 294.578 139.648 277.907 138.479C260.954 137.318 243.834 137.89 227.033 135.267C210.652 132.7 193.844 126.451 183.771 113.282C176.85 104.23 173.77 92.7334 173.1 81.3852C171.284 51.1092 187.608 19.5664 215.081 6.71037C234.423 -2.32916 257.574 -1.67737 277.324 6.38952C291.009 11.9905 303.134 20.8771 316.679 26.7756C328.534 31.941 342.5 34.6078 354.472 30.3808C356.397 29.7177 358.07 31.8637 356.988 33.5883C350.836 43.3161 337.269 47.8582 325.418 46.1501C311.56 44.1469 299.575 35.8553 287.965 28.0167C276.377 20.1887 263.908 12.3398 249.945 11.4581C230.245 10.2143 212.165 23.298 200.212 39.0154C191.322 50.6715 184.584 65.0028 186.267 79.5545C189.527 107.689 217.953 115.789 241.944 113.627C268.525 111.224 295.231 100.909 321.507 110.932C364.425 127.322 378.869 183.328 343.214 215.165C298.128 255.396 232.964 235.934 183.556 217.632C178.307 215.686 173.091 213.728 167.821 211.828C91.8166 184.189 -12.4887 190.898 -56.7891 268.755L-80.0759 251.904C-81.6777 250.739 -31.3406 200.918 -26.1291 196.911C-15.828 188.978 -4.70606 182.571 7.00329 177.414L7.01397 177.391Z" fill="url(#paint2_linear_91_5133)"/>
<path opacity="0.44" d="M149.016 36.7807C152.085 33.679 152.06 28.6776 148.96 25.6099C145.86 22.5421 140.86 22.5696 137.791 25.6713C134.722 28.773 134.747 33.7744 137.847 36.8422C140.946 39.9099 145.947 39.8824 149.016 36.7807Z" fill="#8ACCE1"/>
<path opacity="0.78" d="M134.196 7.37359C134.207 9.55319 135.985 11.3132 138.165 11.3014C140.344 11.2895 142.105 9.51022 142.094 7.33062C142.083 5.15102 140.304 3.39098 138.125 3.40283C135.945 3.41469 134.185 5.19399 134.196 7.37359Z" fill="#8ACCE1"/>
</g>
<g clip-path="url(#clip2_91_5133)">
<path d="M146.517 373.85C137.581 383.849 132.039 396.816 137.007 409.996C142.059 423.41 156.984 437.505 172.408 431.889C178.068 429.825 182.153 424.357 183.801 418.687C184.737 415.454 184.695 411.837 183.11 408.869C181.536 405.89 178.27 403.731 174.93 403.986C173.015 404.135 171.185 405.178 170.004 406.678C168.887 408.092 169.983 410.188 171.781 410.241C172.589 410.262 173.366 410.422 174.089 410.784C179.376 413.475 175.855 419.485 172.238 421.889C166.983 425.378 158.856 423.974 153.665 421.017C146.942 417.187 143.485 409.73 144.815 402.125C146.697 391.391 155.101 380.924 165.005 376.446C167.654 375.243 170.504 374.456 173.44 374.456C192.567 374.456 207.608 394.923 209.225 412.539C210.906 430.942 201.407 449.547 186.184 459.77C168.473 471.673 145.144 471.684 128.305 458.142C113.657 446.366 110.094 428.761 108.54 410.996C98.7964 299.983 -5.32425 234.902 -111.104 235.434C-112.019 235.434 -112.828 235.987 -113.179 236.848L-119.263 251.677C-119.848 253.113 -118.849 254.688 -117.295 254.794C-17.2277 261.592 13.9723 305.812 25.8013 319.003C26.0034 319.226 26.1417 319.471 26.2375 319.758L32.4498 337.565C32.6626 338.161 33.1094 338.65 33.6944 338.895C37.6941 340.597 54.3101 350.66 64.2456 402.742C75.5959 462.28 114.04 480.045 114.04 480.045C114.04 480.045 181.333 508.724 214.214 470.631C245.808 434.016 217.044 382.637 214.735 378.669C214.629 378.499 214.533 378.36 214.384 378.211C211.395 375.222 175.855 341.044 146.527 373.861L146.517 373.85Z" fill="url(#paint3_linear_91_5133)"/>
<path d="M169.375 351.309C152.354 354.118 136.813 366.553 132.452 383.233C127.665 401.551 139.462 426.475 157.684 431.655C143.855 422.826 136.919 400.295 143.206 385.137C145.685 379.169 149.865 373.882 155.29 370.372C164.056 364.691 175.576 364.064 185.416 367.564C195.256 371.063 203.479 378.35 209.351 386.988C223.552 407.891 224.126 440.782 207.829 460.951C190.299 482.652 155.12 479.237 132.42 468.897C99.3048 453.824 91.3692 424.4 84.7207 391.137C76.4872 349.99 49.6379 323.247 16.555 299.93C-13.1876 278.974 -48.7384 260.379 -85.3317 255.784L-119.563 251.486L-121.255 283.559C-121.255 283.559 -93.8524 281.24 -93.8312 281.24C-58.5463 278.25 -22.8891 293.675 4.2261 315.386C34.2028 339.406 47.6913 376.935 53.2335 413.88C59.0416 452.579 80.1997 493.204 119.42 506.256C126.112 508.48 133.047 509.841 140.057 510.469C190.224 514.958 234.2 480.258 237.551 429.102C238.785 410.21 234.402 390.573 223.169 375.34C211.925 360.096 193.384 349.852 174.459 350.778C172.757 350.863 171.045 351.043 169.364 351.32L169.375 351.309Z" fill="url(#paint4_linear_91_5133)"/>
</g>
</g>
<defs>
<linearGradient id="paint0_linear_91_5133" x1="335.421" y1="42.634" x2="284.107" y2="152.678" gradientUnits="userSpaceOnUse">
<stop stop-color="#605ED6"/>
<stop offset="1" stop-color="#5C9AD2"/>
</linearGradient>
<linearGradient id="paint1_linear_91_5133" x1="442.846" y1="138.563" x2="299.674" y2="445.597" gradientUnits="userSpaceOnUse">
<stop stop-color="#605ED6"/>
<stop offset="1" stop-color="#5C9AD2"/>
</linearGradient>
<linearGradient id="paint2_linear_91_5133" x1="438.55" y1="68.8541" x2="273.486" y2="422.833" gradientUnits="userSpaceOnUse">
<stop stop-color="#605ED6"/>
<stop offset="1" stop-color="#5C9AD2"/>
</linearGradient>
<linearGradient id="paint3_linear_91_5133" x1="-14.7827" y1="138.112" x2="266.123" y2="419.017" gradientUnits="userSpaceOnUse">
<stop stop-color="#605ED6"/>
<stop offset="1" stop-color="#5C9AD2"/>
</linearGradient>
<linearGradient id="paint4_linear_91_5133" x1="-3.04438" y1="134.885" x2="279.88" y2="417.81" gradientUnits="userSpaceOnUse">
<stop stop-color="#605ED6"/>
<stop offset="1" stop-color="#5C9AD2"/>
</linearGradient>
<clipPath id="clip0_91_5133">
<rect width="399" height="511" fill="white"/>
</clipPath>
<clipPath id="clip1_91_5133">
<rect width="406" height="400" fill="white" transform="translate(82.5508 -97.0874) rotate(25)"/>
</clipPath>
<clipPath id="clip2_91_5133">
<rect width="179.352" height="400" fill="white" transform="translate(-136.445 268.368) rotate(-45)"/>
</clipPath>
</defs>
</svg>
