<svg width="517" height="273" viewBox="0 0 517 273" fill="none" xmlns="http://www.w3.org/2000/svg">
<g clip-path="url(#clip0_91_5114)">
<g clip-path="url(#clip1_91_5114)">
<path d="M520.135 189.792C510.441 176.037 499.559 162.936 486.303 152.553C462.288 133.726 432.028 126.365 404.24 141.5C351.24 170.378 311.328 218.942 258.111 248.257C229.438 264.029 197.923 274.552 164.872 272.873C131.273 271.166 94.0299 251.71 67.3326 231.707C25.3835 200.25 -5.76691 146.025 1.99343 91.7558C8.2717 47.7674 42.6439 7.44322 86.4885 0.38556C98.2889 -1.51107 110.682 -1.02567 121.699 3.63611C140.044 11.3946 152.111 29.8549 157.147 49.1489C159.31 57.4504 160.347 66.4025 157.594 74.5366C153.634 86.2173 141.839 94.4672 129.546 95.2392C122.262 95.6873 114.99 93.717 108.681 90.0005C106.503 88.7216 107.634 85.3132 110.14 85.5884C118.231 86.4284 126.906 83.4554 132.415 77.3309C141.123 67.6379 141.592 52.0234 134.684 40.9808C127.776 29.9382 114.546 23.611 101.54 23.636C88.5336 23.6611 75.8909 29.5198 66.2916 38.3187C48.529 54.5548 41.0543 79.882 42.0539 103.949C43.0625 127.76 49.8659 155.428 64.1664 174.884C69.327 181.925 76.2783 188.653 84.7846 191.351C87.162 192.108 92.5499 191.627 94.438 192.729C94.438 192.729 181.769 244.674 337.847 90.7446C337.847 90.7446 516.611 -42.2134 606.108 152.212C577.461 164.774 548.908 177.501 520.162 189.839L520.135 189.792Z" fill="url(#paint0_linear_91_5114)"/>
<path d="M630.598 141.392C612.046 113.054 591.719 85.4912 566.436 62.9503C502.16 5.61703 417.119 1.98307 347.492 52.6412C286.963 96.6686 241.417 163.829 165.893 184.323C129.876 194.095 89.0522 189.2 64.3915 158.847C55.301 147.656 44.7173 113.278 41.4588 99.5019C41.1987 172.238 55.4575 182.731 76.4605 195.907C134.765 232.544 229.465 200.321 279.734 162.593C326.622 127.412 360.935 87.3101 420.632 73.4483C475.023 60.8031 511.818 80.8937 544.74 123.387C549.124 129.029 578.407 164.353 564.116 170.663C586.253 160.92 608.414 151.163 630.598 141.392Z" fill="url(#paint1_linear_91_5114)"/>
<path opacity="0.44" d="M217.141 15.1901C220.198 12.0811 220.156 7.08017 217.045 4.02014C213.935 0.960104 208.934 0.999776 205.876 4.10875C202.819 7.21772 202.861 12.2187 205.972 15.2787C209.082 18.3388 214.083 18.2991 217.141 15.1901Z" fill="#8ACCE1"/>
</g>
</g>
<defs>
<linearGradient id="paint0_linear_91_5114" x1="131.848" y1="426.092" x2="-66.7718" y2="82.0734" gradientUnits="userSpaceOnUse">
<stop stop-color="#605ED6"/>
<stop offset="1" stop-color="#5C9AD2"/>
</linearGradient>
<linearGradient id="paint1_linear_91_5114" x1="159.915" y1="413.196" x2="-5.55933" y2="126.587" gradientUnits="userSpaceOnUse">
<stop stop-color="#605ED6"/>
<stop offset="1" stop-color="#5C9AD2"/>
</linearGradient>
<clipPath id="clip0_91_5114">
<rect width="517" height="273" fill="white"/>
</clipPath>
<clipPath id="clip1_91_5114">
<rect width="547" height="400" fill="white" transform="translate(630.598 141.392) rotate(150)"/>
</clipPath>
</defs>
</svg>
