<svg width="168" height="145" viewBox="0 0 168 145" fill="none" xmlns="http://www.w3.org/2000/svg">
<g clip-path="url(#clip0_89_5111)">
<g clip-path="url(#clip1_89_5111)">
<path d="M153.33 61.6096C153.33 61.6096 164.202 116.709 165.598 121.334C166.994 125.968 172.769 149.012 191.699 163.563V118.479C191.699 118.479 176.001 79.86 168.43 57.8302L167.832 57.333C170.345 55.8411 172.42 53.6928 173.118 50.908C166.366 41.0618 159.614 31.2156 152.861 21.3793C151.794 19.8178 150.707 18.2464 149.301 16.9833C147.815 15.6506 146.009 14.7256 144.204 13.8703C131.109 7.67411 115.859 4.62078 102.035 8.94716C92.8693 11.8215 84.8803 17.769 78.527 24.9597C65.6808 39.5003 57.1533 59.0536 55.6572 78.4079C54.8992 88.2243 57.6819 97.9611 56.8142 107.748C56.3554 112.91 54.6898 118.111 51.2089 121.96C47.379 126.197 41.6641 128.405 35.9591 128.892C28.5486 129.519 20.5696 127.132 15.9218 121.334C11.0247 115.227 10.8452 105.759 14.2562 98.906C16.6599 94.0624 22.1055 89.7161 27.6709 92.0235C29.3864 92.7396 32.2488 94.5597 32.8672 96.6284C33.1066 97.4141 34.1738 97.5534 34.4929 96.7975C34.6326 96.4593 34.7423 96.0615 34.7921 95.5344C35.7297 87.17 25.0278 81.8193 18.0163 83.3907C10.1969 85.1411 4.19266 94.2215 2.66667 101.631C-1.50235 121.801 8.2021 135.367 24.3396 142.07C36.0588 146.944 50.0121 144.656 60.4247 137.754C68.2042 132.602 74.0588 124.735 76.0037 115.555C80.3522 95.1167 64.1948 66.5327 83.4541 50.0726C89.8572 44.6025 98.4446 42.1459 106.553 40.5546C116.946 38.5058 127.129 37.0437 136.963 42.1658C144.673 46.1739 150.687 53.3149 153.31 61.5897L153.33 61.6096Z" fill="url(#paint0_linear_89_5111)"/>
<path d="M191.7 53.2453C191.899 53.2055 182.873 36.3873 182.215 35.4027C174.306 23.6767 163.793 13.4426 150.917 7.326C126.521 -4.28063 95.2736 -1.15768 75.8447 18.306C61.672 32.5085 54.2915 53.5934 55.219 73.4947C55.2988 75.1457 55.4384 76.7867 55.6479 78.4278C55.3188 75.832 56.9944 71.9133 57.6626 69.4667C59.5776 62.4351 62.1408 55.5427 65.482 49.0581C73.3214 33.8213 87.3445 21.3594 103.971 16.5755C121.365 11.5728 139.188 19.0122 152.254 30.41C156.532 34.1495 162.437 38.4958 162.796 44.7019C163.444 55.8312 168.421 57.8302 168.421 57.8302C168.421 57.8302 173.029 107.3 191.69 118.479L191.69 53.2453" fill="url(#paint1_linear_89_5111)"/>
</g>
</g>
<defs>
<linearGradient id="paint0_linear_89_5111" x1="191.727" y1="171.754" x2="1.66982" y2="171.754" gradientUnits="userSpaceOnUse">
<stop stop-color="#605ED6"/>
<stop offset="1" stop-color="#5C9AD2"/>
</linearGradient>
<linearGradient id="paint1_linear_89_5111" x1="191.723" y1="124.645" x2="55.1193" y2="124.645" gradientUnits="userSpaceOnUse">
<stop stop-color="#605ED6"/>
<stop offset="1" stop-color="#5C9AD2"/>
</linearGradient>
<clipPath id="clip0_89_5111">
<rect width="168" height="145" fill="white"/>
</clipPath>
<clipPath id="clip1_89_5111">
<rect width="163" height="190" fill="white" transform="matrix(0 1 -1 0 191.699 0.562988)"/>
</clipPath>
</defs>
</svg>
