<svg width="24" height="25" viewBox="0 0 24 25" fill="none" xmlns="http://www.w3.org/2000/svg">
<path d="M7.37601 20.513C7.29078 20.4636 7.19666 20.4315 7.09903 20.4185C7.00139 20.4055 6.90215 20.4119 6.80697 20.4372C6.71179 20.4626 6.62254 20.5064 6.5443 20.5663C6.46607 20.6261 6.40039 20.7008 6.35101 20.786C6.30163 20.8712 6.26953 20.9653 6.25652 21.063C6.24352 21.1606 6.24988 21.2599 6.27523 21.355C6.30058 21.4502 6.34443 21.5395 6.40427 21.6177C6.46412 21.6959 6.53878 21.7616 6.62401 21.811L7.37601 20.513ZM2.68901 17.875C2.73633 17.9639 2.80106 18.0423 2.87934 18.1056C2.95761 18.1689 3.04783 18.2158 3.14462 18.2435C3.24141 18.2712 3.34279 18.2792 3.44271 18.2668C3.54263 18.2545 3.63905 18.2222 3.72622 18.1719C3.8134 18.1215 3.88953 18.0541 3.9501 17.9737C4.01067 17.8933 4.05442 17.8015 4.07876 17.7038C4.10309 17.6061 4.10751 17.5045 4.09175 17.4051C4.07599 17.3056 4.04037 17.2104 3.98701 17.125L2.68901 17.875ZM21.25 12.5C21.25 14.9533 20.2755 17.306 18.5407 19.0407C16.806 20.7754 14.4533 21.75 12 21.75V23.25C17.937 23.25 22.75 18.437 22.75 12.5H21.25ZM2.75001 12.5C2.75001 10.0467 3.72456 7.69397 5.45927 5.95926C7.19398 4.22455 9.54676 3.25 12 3.25V1.75C6.06301 1.75 1.25001 6.563 1.25001 12.5H2.75001ZM15.5 14.75C13.975 14.75 12.5125 14.1442 11.4341 13.0659C10.3558 11.9875 9.75001 10.525 9.75001 9H8.25001C8.25001 10.9228 9.01385 12.7669 10.3735 14.1265C11.7331 15.4862 13.5772 16.25 15.5 16.25V14.75ZM20.425 11.969C19.9136 12.8179 19.1914 13.5201 18.3284 14.0074C17.4654 14.4947 16.4911 14.7505 15.5 14.75V16.25C16.7495 16.2507 17.9778 15.9283 19.0659 15.3141C20.154 14.7 21.0649 13.815 21.71 12.745L20.425 11.969ZM9.75001 9C9.74958 8.00897 10.0054 7.03467 10.4927 6.17171C10.98 5.30875 11.6822 4.58647 12.531 4.075L11.755 2.791C10.6851 3.43599 9.80012 4.34665 9.18598 5.43457C8.57185 6.52249 8.24942 7.75071 8.25001 9H9.75001ZM12 3.25C11.8986 3.24761 11.8023 3.20519 11.732 3.132C11.6891 3.09023 11.6604 3.036 11.65 2.977C11.646 2.946 11.648 2.856 11.755 2.791L12.531 4.075C13.034 3.771 13.196 3.214 13.137 2.776C13.075 2.321 12.717 1.75 12 1.75V3.25ZM21.71 12.745C21.644 12.852 21.554 12.854 21.523 12.85C21.464 12.8396 21.4098 12.8109 21.368 12.768C21.2948 12.6978 21.2524 12.6014 21.25 12.5H22.75C22.75 11.783 22.179 11.425 21.724 11.363C21.286 11.304 20.729 11.466 20.425 11.969L21.71 12.745ZM12 21.75C10.3766 21.7527 8.78128 21.3259 7.37601 20.513L6.62401 21.811C8.25779 22.7563 10.1125 23.2527 12 23.25V21.75ZM3.98701 17.125C3.17392 15.7194 2.74715 14.1238 2.75001 12.5H1.25001C1.24727 14.3872 1.74373 16.2416 2.68901 17.875L3.98701 17.125Z" fill="#C0BFE2"/>
</svg>
