<svg width="24" height="25" viewBox="0 0 24 25" fill="none" xmlns="http://www.w3.org/2000/svg">
<path d="M7.285 10.833C6.90727 11.9022 6.90423 13.0681 7.27637 14.1393C7.64851 15.2105 8.37372 16.1234 9.333 16.7281C10.2923 17.3329 11.4286 17.5936 12.5556 17.4674C13.6825 17.3413 14.7331 16.8359 15.535 16.034C16.3369 15.2321 16.8423 14.1815 16.9684 13.0546C17.0946 11.9276 16.8339 10.7913 16.2291 9.832C15.6244 8.87272 14.7115 8.14751 13.6403 7.77537C12.5691 7.40323 11.4032 7.40627 10.334 7.784M12 2.5V4.5M12 20.5V22.5M4 12.5H2M22 12.5H20M19.778 4.723L17.556 6.754M4.222 4.723L6.444 6.754M6.444 18.056L4.222 20.278M19.778 20.277L17.556 18.055" stroke="#C0BFE2" stroke-width="1.5" stroke-linecap="round"/>
</svg>
