<svg width="173" height="69" viewBox="0 0 173 69" fill="none" xmlns="http://www.w3.org/2000/svg">
<path d="M16.7915 31.5283C16.7915 28.1614 17.3192 25.1823 18.3773 22.5912C19.4354 20 20.8814 17.831 22.7179 16.0816C24.5518 14.3321 26.7102 13.0049 29.1959 12.0972C31.6788 11.1895 34.365 10.7383 37.2596 10.7383C40.1516 10.7383 42.8404 11.1921 45.3234 12.0972C47.8063 13.0049 49.9753 14.3321 51.8329 16.0816C53.6879 17.831 55.1471 20 56.2052 22.5912C57.2633 25.1823 57.791 28.1614 57.791 31.5283C57.791 34.8952 57.2739 37.8875 56.2369 40.4997C55.1999 43.112 53.7644 45.2916 51.9306 47.041C50.0941 48.7904 47.9251 50.1177 45.421 51.0254C42.9169 51.9331 40.1964 52.3843 37.2596 52.3843C34.3228 52.3843 31.6023 51.9199 29.0982 50.9911C26.5941 50.0623 24.4357 48.7139 22.6203 46.9434C20.8075 45.1728 19.3827 42.9933 18.3457 40.4021C17.3113 37.811 16.7915 34.8556 16.7915 31.5283ZM28.4518 31.5283C28.4518 35.4573 29.2513 38.3941 30.8477 40.3361C32.444 42.2782 34.5814 43.2492 37.2596 43.2492C39.9801 43.2492 42.1385 42.2782 43.7375 40.3361C45.3339 38.3941 46.1334 35.4573 46.1334 31.5283C46.1334 27.6415 45.3445 24.7285 43.7692 22.7838C42.1913 20.8417 40.046 19.868 37.3256 19.868C34.6473 19.868 32.4995 20.8285 30.882 22.7495C29.2592 24.6757 28.4518 27.5993 28.4518 31.5283Z" fill="url(#paint0_linear_824_6366)"/>
<path d="M27.7869 50.3368C27.2169 48.8248 26.8237 47.1915 27.0823 45.5977C27.3409 44.0014 28.3674 42.4551 29.9031 41.9511C30.7976 41.6582 31.7158 41.7347 32.6394 41.9617C32.6394 41.9617 35.3704 43.9987 39.492 43.0039C39.492 43.0039 39.5315 42.6002 39.4629 42.2889C38.4998 37.9008 34.8031 34.7528 30.5891 33.8531C23.0056 32.2329 14.3244 38.1251 14.4801 46.2521C14.5223 48.4924 15.1846 50.7405 16.4433 52.6008C19.2904 56.8094 24.7392 58.5298 29.5811 57.2158C32.3042 56.4769 34.46 54.6352 36.1277 52.358C30.2593 51.92 27.7869 50.3368 27.7869 50.3368Z" fill="url(#paint1_linear_824_6366)"/>
<path d="M26.903 29.3334C27.7791 29.7899 28.4941 30.0142 28.4941 30.0142C28.4941 30.0142 30.5206 29.2147 31.3756 27.0325C32.9165 23.0983 32.3967 18.3487 26.0903 14.8841C22.6152 12.9764 17.9764 13.2112 15.0897 15.929C12.203 18.6468 11.4853 23.3991 13.467 26.832C13.963 27.6922 15.8233 29.3862 16.8497 29.6712C16.8497 29.6712 17.425 28.7925 18.9633 28.3993C21.499 27.7529 24.5757 28.1223 26.903 29.3334Z" fill="url(#paint2_linear_824_6366)"/>
<path d="M41.4293 36.6373C40.1047 34.9485 39.5321 32.703 40.1179 30.6106C42.242 23.0323 53.7202 25.4045 59.388 23.4862C62.1032 22.5679 64.2511 20.6074 64.1297 17.5598C64.011 14.5833 61.8446 11.3009 58.7838 10.6781C57.5172 10.4195 55.8549 10.9763 55.591 12.4012C55.5066 12.8629 55.6464 13.3511 55.9261 13.7258C56.1398 14.016 55.8522 14.4013 55.5066 14.2984C54.9947 14.1427 54.5329 13.8577 54.211 13.4408C52.823 11.6492 53.7545 9.11604 55.7678 7.94183C59.3801 5.83618 64.2933 7.2505 67.0164 10.7309C68.0138 12.0054 68.787 13.4672 69.2645 15.0161C70.481 18.9741 70.0007 23.4783 67.808 27.0114C64.726 31.9853 58.8524 32.8007 53.546 33.3574C51.1818 33.6055 48.8176 34.1517 46.5483 34.8562C46.2369 34.9538 45.857 35.1596 45.857 35.1596C45.7198 35.9803 45.6116 37.0304 44.7936 38.6664C43.4532 38.3999 42.3238 37.7772 41.4293 36.6373Z" fill="url(#paint3_linear_824_6366)"/>
<path d="M72.5133 40.0411C71.225 40.0411 70.2384 40.4344 69.5501 41.221C68.8653 42.0076 68.5194 43.1196 68.5194 44.5605C68.5194 46.015 68.8992 47.1373 69.662 47.9239C70.4248 48.7104 71.4488 49.1037 72.7371 49.1037C73.422 49.1037 74.0051 49.0122 74.4832 48.8291C74.9612 48.646 75.4155 48.4358 75.8529 48.2019C76.1377 48.4358 76.3581 48.7172 76.5174 49.0427C76.6768 49.3682 76.7548 49.7479 76.7548 50.1853C76.7548 50.8701 76.375 51.4533 75.6122 51.9313C74.8493 52.4094 73.6932 52.6467 72.137 52.6467C71.0148 52.6467 69.9604 52.4874 68.9737 52.1687C67.9871 51.85 67.126 51.3617 66.3869 50.7006C65.6511 50.0395 65.068 49.202 64.6408 48.1917C64.2136 47.178 64 45.971 64 44.5639C64 43.2586 64.2034 42.1093 64.6137 41.1125C65.0239 40.1157 65.5833 39.2749 66.2953 38.59C67.0073 37.9052 67.838 37.3864 68.7941 37.0338C69.7468 36.6812 70.7673 36.5083 71.8556 36.5083C73.3949 36.5083 74.5883 36.7592 75.4325 37.261C76.2767 37.7628 76.7005 38.4069 76.7005 39.1935C76.7005 39.6275 76.592 40.0038 76.375 40.3225C76.158 40.6412 75.9072 40.8921 75.6224 41.0752C75.1884 40.7904 74.7239 40.5497 74.2289 40.3463C73.7407 40.1428 73.1677 40.0411 72.5133 40.0411Z" fill="url(#paint4_linear_824_6366)"/>
<path d="M79.0167 40.4918C78.898 40.3087 78.7895 40.0578 78.6912 39.7391C78.5895 39.4204 78.542 39.0848 78.542 38.7356C78.542 38.0846 78.6878 37.6134 78.9827 37.3286C79.2743 37.0438 79.6574 36.9014 80.1253 36.9014H91.0696C91.1849 37.0844 91.2968 37.3353 91.3951 37.654C91.4968 37.9727 91.5443 38.305 91.5443 38.6576C91.5443 39.3086 91.3985 39.7798 91.1035 40.0646C90.8119 40.3494 90.4288 40.4918 89.9609 40.4918H87.174V52.0871C86.9909 52.1379 86.6993 52.1888 86.3094 52.2362C85.9162 52.2871 85.5263 52.3108 85.1431 52.3108C84.7566 52.3108 84.4176 52.2803 84.126 52.2227C83.8344 52.165 83.5869 52.0599 83.3869 51.9074C83.1869 51.7548 83.0343 51.548 82.936 51.2801C82.8343 51.0123 82.7868 50.6597 82.7868 50.2257V40.485H79.0167V40.4918Z" fill="url(#paint5_linear_824_6366)"/>
<path d="M93.5474 44.5605C93.5474 43.2552 93.7508 42.1025 94.161 41.0955C94.5713 40.0919 95.1307 39.2511 95.8427 38.573C96.5547 37.8949 97.3887 37.3796 98.3516 37.0304C99.3145 36.6778 100.355 36.5049 101.478 36.5049C102.6 36.5049 103.641 36.6812 104.604 37.0304C105.566 37.383 106.407 37.8949 107.126 38.573C107.845 39.2511 108.411 40.0919 108.821 41.0955C109.231 42.0991 109.435 43.2552 109.435 44.5605C109.435 45.8658 109.235 47.0253 108.831 48.0357C108.431 49.0494 107.872 49.8936 107.163 50.5717C106.451 51.2498 105.61 51.7652 104.641 52.1144C103.671 52.467 102.617 52.6399 101.478 52.6399C100.338 52.6399 99.284 52.4602 98.3143 52.1008C97.3446 51.7414 96.5072 51.2193 95.8054 50.531C95.1036 49.8462 94.5509 48.9986 94.1475 47.995C93.7508 46.9948 93.5474 45.8489 93.5474 44.5605ZM98.0668 44.5605C98.0668 46.0828 98.3753 47.222 98.9958 47.9747C99.6162 48.7273 100.443 49.1037 101.481 49.1037C102.535 49.1037 103.373 48.7273 103.99 47.9747C104.61 47.222 104.919 46.0828 104.919 44.5605C104.919 43.0552 104.614 41.9262 104.003 41.1735C103.393 40.4208 102.559 40.0445 101.505 40.0445C100.467 40.0445 99.6332 40.4174 99.0059 41.1599C98.3821 41.9024 98.0668 43.0382 98.0668 44.5605Z" fill="url(#paint6_linear_824_6366)"/>
<path d="M116.968 52.091C116.785 52.1419 116.494 52.1927 116.104 52.2402C115.71 52.291 115.321 52.3148 114.937 52.3148C114.551 52.3148 114.215 52.2843 113.92 52.2266C113.629 52.169 113.381 52.0639 113.181 51.9113C112.981 51.7621 112.829 51.5519 112.73 51.2841C112.629 51.0162 112.581 50.6636 112.581 50.2297V38.4073C112.581 38.0547 112.676 37.7834 112.869 37.5902C113.062 37.3969 113.324 37.2444 113.659 37.1257C114.229 36.9257 114.876 36.7799 115.605 36.6883C116.334 36.5968 117.067 36.5493 117.802 36.5493C120.111 36.5493 121.878 37.0443 123.098 38.0309C124.319 39.0176 124.929 40.3568 124.929 42.0486C124.929 42.8691 124.8 43.6082 124.539 44.2693C124.278 44.9304 123.895 45.5 123.383 45.9747C122.871 46.4527 122.227 46.8189 121.45 47.08C120.674 47.341 119.772 47.4699 118.752 47.4699H116.968V52.091ZM118.274 44.032C118.975 44.032 119.518 43.8692 119.894 43.5438C120.271 43.2183 120.46 42.7199 120.46 42.0486C120.46 41.4112 120.264 40.923 119.87 40.5805C119.477 40.2381 118.904 40.0652 118.152 40.0652C117.884 40.0652 117.663 40.0686 117.487 40.0787C117.311 40.0889 117.131 40.1093 116.948 40.1432V44.032H118.274Z" fill="url(#paint7_linear_824_6366)"/>
<path d="M141.265 46.5672C141.265 47.4725 141.109 48.2963 140.8 49.0388C140.492 49.7847 140.044 50.4187 139.458 50.9476C138.871 51.4765 138.159 51.88 137.325 52.1648C136.488 52.4496 135.542 52.592 134.487 52.592C133.433 52.592 132.487 52.4496 131.65 52.1648C130.812 51.88 130.1 51.4732 129.517 50.9476C128.931 50.4221 128.483 49.7847 128.174 49.0388C127.866 48.2929 127.71 47.4691 127.71 46.5672V36.9791C127.893 36.9452 128.188 36.9011 128.588 36.8401C128.988 36.7825 129.375 36.752 129.744 36.752C130.127 36.752 130.466 36.7825 130.761 36.8401C131.053 36.8977 131.3 37.0028 131.5 37.1554C131.7 37.3046 131.853 37.5148 131.951 37.7826C132.053 38.0505 132.101 38.4031 132.101 38.8371V46.4926C132.101 47.2962 132.321 47.9234 132.765 48.3743C133.209 48.8252 133.782 49.0524 134.484 49.0524C135.203 49.0524 135.779 48.8252 136.217 48.3743C136.65 47.9234 136.867 47.2962 136.867 46.4926V36.9791C137.051 36.9452 137.346 36.9011 137.746 36.8401C138.146 36.7825 138.532 36.752 138.902 36.752C139.285 36.752 139.624 36.7825 139.919 36.8401C140.21 36.8977 140.458 37.0028 140.658 37.1554C140.858 37.3046 141.011 37.5148 141.109 37.7826C141.211 38.0505 141.258 38.4031 141.258 38.8371V46.5672H141.265Z" fill="url(#paint8_linear_824_6366)"/>
<path d="M149.398 46.1408C148.663 45.8899 147.991 45.6356 147.391 45.3745C146.788 45.1169 146.269 44.8016 145.835 44.432C145.401 44.0658 145.062 43.6251 144.818 43.1131C144.574 42.6046 144.455 41.9807 144.455 41.2416C144.455 39.821 145.004 38.6819 146.099 37.8275C147.195 36.9731 148.73 36.5459 150.707 36.5459C151.426 36.5459 152.097 36.5968 152.714 36.6951C153.335 36.7968 153.863 36.9494 154.308 37.1596C154.752 37.3698 155.098 37.6376 155.348 37.9631C155.599 38.2886 155.725 38.6717 155.725 39.1057C155.725 39.5396 155.623 39.9126 155.423 40.2211C155.223 40.5296 154.979 40.7941 154.694 41.0111C154.325 40.7771 153.833 40.5703 153.213 40.3974C152.592 40.2211 151.914 40.133 151.178 40.133C150.426 40.133 149.873 40.2381 149.52 40.4449C149.168 40.6551 148.995 40.9195 148.995 41.2348C148.995 41.4857 149.103 41.6926 149.32 41.8485C149.537 42.0079 149.863 42.1537 150.3 42.2859L151.629 42.7131C153.202 43.2149 154.413 43.8556 155.257 44.6321C156.101 45.4085 156.525 46.4697 156.525 47.8089C156.525 49.2329 155.966 50.3822 154.843 51.2603C153.721 52.1384 152.073 52.5792 149.9 52.5792C149.13 52.5792 148.415 52.5148 147.754 52.3893C147.093 52.2639 146.516 52.0808 146.021 51.8367C145.526 51.5926 145.143 51.2942 144.865 50.9314C144.591 50.5721 144.452 50.1584 144.452 49.6906C144.452 49.2057 144.594 48.7921 144.879 48.4463C145.164 48.1038 145.472 47.8394 145.808 47.6563C146.276 48.0259 146.849 48.3412 147.527 48.609C148.205 48.8769 148.944 49.0091 149.748 49.0091C150.568 49.0091 151.144 48.8836 151.48 48.6327C151.816 48.3819 151.982 48.0903 151.982 47.7546C151.982 47.419 151.846 47.1647 151.582 46.9884C151.314 46.8121 150.938 46.6426 150.453 46.473L149.398 46.1408Z" fill="url(#paint9_linear_824_6366)"/>
<defs>
<linearGradient id="paint0_linear_824_6366" x1="31.5696" y1="50.581" x2="43.0085" y2="12.5804" gradientUnits="userSpaceOnUse">
<stop offset="0.00128142" stop-color="#C04FBA"/>
<stop offset="0.9955" stop-color="#EF5C54"/>
</linearGradient>
<linearGradient id="paint1_linear_824_6366" x1="23.4769" y1="35.4045" x2="28.3715" y2="48.9895" gradientUnits="userSpaceOnUse">
<stop offset="0.00415427" stop-color="#46ABBA"/>
<stop offset="1" stop-color="#4E4CBF"/>
</linearGradient>
<linearGradient id="paint2_linear_824_6366" x1="23.2674" y1="14.4268" x2="21.5672" y2="28.3284" gradientUnits="userSpaceOnUse">
<stop offset="0.00415427" stop-color="#46ABBA"/>
<stop offset="1" stop-color="#4E4CBF"/>
</linearGradient>
<linearGradient id="paint3_linear_824_6366" x1="46.6113" y1="17.5753" x2="60.4413" y2="28.5405" gradientUnits="userSpaceOnUse">
<stop offset="0.00415427" stop-color="#46ABBA"/>
<stop offset="1" stop-color="#4E4CBF"/>
</linearGradient>
<linearGradient id="paint4_linear_824_6366" x1="110.266" y1="36.5026" x2="110.266" y2="52.6425" gradientUnits="userSpaceOnUse">
<stop offset="0.00415427" stop-color="#46ABBA"/>
<stop offset="1" stop-color="#4E4CBF"/>
</linearGradient>
<linearGradient id="paint5_linear_824_6366" x1="110.266" y1="36.5023" x2="110.266" y2="52.6423" gradientUnits="userSpaceOnUse">
<stop offset="0.00415427" stop-color="#46ABBA"/>
<stop offset="1" stop-color="#4E4CBF"/>
</linearGradient>
<linearGradient id="paint6_linear_824_6366" x1="110.266" y1="36.5025" x2="110.266" y2="52.6425" gradientUnits="userSpaceOnUse">
<stop offset="0.00415427" stop-color="#46ABBA"/>
<stop offset="1" stop-color="#4E4CBF"/>
</linearGradient>
<linearGradient id="paint7_linear_824_6366" x1="110.266" y1="36.5029" x2="110.266" y2="52.6428" gradientUnits="userSpaceOnUse">
<stop offset="0.00415427" stop-color="#46ABBA"/>
<stop offset="1" stop-color="#4E4CBF"/>
</linearGradient>
<linearGradient id="paint8_linear_824_6366" x1="110.266" y1="36.5021" x2="110.266" y2="52.642" gradientUnits="userSpaceOnUse">
<stop offset="0.00415427" stop-color="#46ABBA"/>
<stop offset="1" stop-color="#4E4CBF"/>
</linearGradient>
<linearGradient id="paint9_linear_824_6366" x1="110.266" y1="36.5029" x2="110.266" y2="52.6428" gradientUnits="userSpaceOnUse">
<stop offset="0.00415427" stop-color="#46ABBA"/>
<stop offset="1" stop-color="#4E4CBF"/>
</linearGradient>
</defs>
</svg>
