<svg width="1440" height="883" viewBox="0 0 1440 883" fill="none" xmlns="http://www.w3.org/2000/svg">
<g clip-path="url(#clip0_2205_5436)">
<path d="M1443.14 657.792C1433.44 644.037 1422.56 630.936 1409.3 620.553C1385.29 601.726 1355.03 594.365 1327.24 609.5C1274.24 638.378 1234.33 686.942 1181.11 716.257C1152.44 732.029 1120.92 742.552 1087.87 740.873C1054.27 739.166 1017.03 719.71 990.333 699.707C948.384 668.25 917.233 614.025 924.993 559.756C931.272 515.767 965.644 475.443 1009.49 468.386C1021.29 466.489 1033.68 466.974 1044.7 471.636C1063.04 479.395 1075.11 497.855 1080.15 517.149C1082.31 525.45 1083.35 534.403 1080.59 542.537C1076.63 554.217 1064.84 562.467 1052.55 563.239C1045.26 563.687 1037.99 561.717 1031.68 558C1029.5 556.722 1030.63 553.313 1033.14 553.588C1041.23 554.428 1049.91 551.455 1055.42 545.331C1064.12 535.638 1064.59 520.023 1057.68 508.981C1050.78 497.938 1037.55 491.611 1024.54 491.636C1011.53 491.661 998.891 497.52 989.292 506.319C971.529 522.555 964.054 547.882 965.054 571.949C966.063 595.76 972.866 623.428 987.166 642.884C992.327 649.925 999.278 656.653 1007.78 659.351C1010.16 660.108 1015.55 659.627 1017.44 660.729C1017.44 660.729 1104.77 712.674 1260.85 558.745C1260.85 558.745 1439.61 425.787 1529.11 620.212C1500.46 632.774 1471.91 645.501 1443.16 657.839L1443.14 657.792Z" fill="url(#paint0_linear_2205_5436)"/>
<path d="M1553.6 609.392C1535.05 581.054 1514.72 553.491 1489.44 530.95C1425.16 473.617 1340.12 469.983 1270.49 520.641C1209.96 564.669 1164.42 631.829 1088.89 652.323C1052.88 662.095 1012.05 657.2 987.392 626.847C978.301 615.656 967.717 581.278 964.459 567.502C964.199 640.238 978.457 650.731 999.461 663.907C1057.77 700.544 1152.47 668.321 1202.73 630.593C1249.62 595.412 1283.93 555.31 1343.63 541.448C1398.02 528.803 1434.82 548.894 1467.74 591.387C1472.12 597.029 1501.41 632.353 1487.12 638.663C1509.25 628.92 1531.41 619.163 1553.6 609.392Z" fill="url(#paint1_linear_2205_5436)"/>
<path opacity="0.44" d="M1140.14 483.19C1143.2 480.081 1143.16 475.08 1140.05 472.02C1136.93 468.96 1131.93 469 1128.88 472.109C1125.82 475.218 1125.86 480.219 1128.97 483.279C1132.08 486.339 1137.08 486.299 1140.14 483.19Z" fill="#8ACCE1"/>
<path opacity="0.44" d="M1143.7 441.285C1143.72 443.904 1145.87 446.016 1148.49 445.995C1151.11 445.975 1153.22 443.828 1153.2 441.209C1153.18 438.589 1151.03 436.477 1148.41 436.498C1145.79 436.519 1143.68 438.665 1143.7 441.285Z" fill="#8ACCE1"/>
<path opacity="0.78" d="M1125.22 453.822C1125.24 456.002 1127.02 457.757 1129.2 457.74C1131.38 457.722 1133.14 455.938 1133.12 453.759C1133.1 451.579 1131.32 449.824 1129.14 449.842C1126.96 449.859 1125.2 451.643 1125.22 453.822Z" fill="#8ACCE1"/>
</g>
<g clip-path="url(#clip1_2205_5436)">
<path d="M297.073 122.389C297.073 122.389 243.528 111.104 236.834 139.139C230.141 167.175 255.167 201.084 310.797 205.566L257.855 222.263L203.905 206.052C203.905 206.052 179.116 178.802 200.664 137.851C200.664 137.851 252.502 69.2778 297.062 122.412L297.073 122.389Z" fill="url(#paint2_linear_2205_5436)"/>
<path d="M311.664 203.712C311.664 203.712 410.603 166.215 412.335 256.592C414.078 346.945 303.473 409.936 201.43 366.867C99.3875 323.799 31.488 365.403 4.05621 398.482L-43.132 365.86L-36.219 333.83L27.62 292.033L89.7896 277.772L155.396 296.883L219.276 309.002L261.349 321.709L355.057 299.971L356.595 240.994C356.595 240.994 335.289 218.463 311.62 203.747L311.664 203.712Z" fill="url(#paint3_linear_2205_5436)"/>
<path d="M20.5101 274.478C31.5498 269.621 43.3143 265.66 54.9798 263.045C92.2001 254.735 126.971 257.293 161.874 266.379C195.947 275.272 226.282 293.793 259.869 303.073C293.591 312.36 320.897 306.672 341.088 276.933C344.585 271.763 346.128 265.348 344.754 259.274C340.102 238.962 308.074 236.735 291.403 235.566C274.45 234.405 257.33 234.977 240.529 232.354C224.148 229.788 207.34 223.538 197.267 210.37C190.346 201.317 187.266 189.821 186.596 178.473C184.78 148.197 201.104 116.654 228.577 103.798C247.919 94.7582 271.07 95.41 290.82 103.477C304.505 109.078 316.63 117.964 330.176 123.863C342.03 129.028 355.996 131.695 367.968 127.468C369.893 126.805 371.567 128.951 370.484 130.676C364.332 140.403 350.765 144.946 338.914 143.238C325.056 141.234 313.072 132.943 301.461 125.104C289.873 117.276 277.404 109.427 263.441 108.546C243.741 107.302 225.661 120.385 213.708 136.103C204.818 147.759 198.08 162.09 199.763 176.642C203.023 204.777 231.449 212.876 255.44 210.714C282.022 208.311 308.727 197.996 335.003 208.019C377.921 224.409 392.365 280.416 356.71 312.253C311.625 352.484 246.46 333.022 197.052 314.72C191.803 312.774 186.587 310.815 181.317 308.915C105.313 281.277 1.00735 287.985 -43.293 365.842L-66.5798 348.992C-68.1816 347.827 -17.8445 298.005 -12.633 293.998C-2.33191 286.066 8.79003 279.659 20.4994 274.501L20.5101 274.478Z" fill="url(#paint4_linear_2205_5436)"/>
<path opacity="0.44" d="M162.512 133.868C165.581 130.766 165.556 125.765 162.456 122.697C159.356 119.63 154.356 119.657 151.287 122.759C148.218 125.86 148.243 130.862 151.343 133.93C154.443 136.997 159.443 136.97 162.512 133.868Z" fill="#8ACCE1"/>
<path opacity="0.44" d="M166.212 91.9718C166.225 94.5913 168.365 96.7093 170.984 96.6951C173.604 96.6808 175.722 94.5396 175.709 91.9201C175.696 89.3006 173.556 87.1826 170.936 87.1968C168.317 87.2111 166.198 89.3523 166.212 91.9718Z" fill="#8ACCE1"/>
<path opacity="0.78" d="M147.692 104.461C147.703 106.641 149.481 108.401 151.661 108.389C153.84 108.377 155.601 106.598 155.59 104.418C155.579 102.238 153.8 100.478 151.621 100.49C149.441 100.502 147.681 102.281 147.692 104.461Z" fill="#8ACCE1"/>
</g>
<g clip-path="url(#clip2_2205_5436)">
<path d="M147.517 468.85C138.581 478.849 133.039 491.816 138.007 504.996C143.059 518.41 157.984 532.505 173.409 526.889C179.068 524.825 183.153 519.357 184.801 513.687C185.737 510.453 185.695 506.837 184.11 503.869C182.536 500.89 179.27 498.731 175.93 498.986C174.015 499.135 172.185 500.178 171.004 501.678C169.887 503.092 170.983 505.188 172.781 505.241C173.589 505.262 174.366 505.422 175.089 505.784C180.376 508.475 176.855 514.485 173.238 516.889C167.983 520.378 159.856 518.974 154.665 516.017C147.942 512.187 144.485 504.73 145.815 497.125C147.697 486.391 156.101 475.924 166.005 471.445C168.654 470.243 171.504 469.456 174.44 469.456C193.567 469.456 208.608 489.923 210.225 507.539C211.906 525.942 202.407 544.547 187.184 554.77C169.473 566.673 146.144 566.684 129.305 553.142C114.657 541.366 111.094 523.761 109.54 505.996C99.7964 394.983 -4.32425 329.902 -110.104 330.434C-111.019 330.434 -111.828 330.987 -112.179 331.848L-118.263 346.677C-118.848 348.113 -117.849 349.688 -116.295 349.794C-16.2277 356.592 14.9723 400.812 26.8013 414.003C27.0034 414.226 27.1417 414.471 27.2375 414.758L33.4498 432.565C33.6626 433.161 34.1093 433.65 34.6944 433.895C38.6941 435.597 55.3101 445.66 65.2456 497.742C76.5959 557.28 115.04 575.045 115.04 575.045C115.04 575.045 182.333 603.724 215.214 565.631C246.808 529.016 218.044 477.637 215.735 473.669C215.629 473.499 215.533 473.36 215.384 473.211C212.395 470.222 176.855 436.044 147.527 468.861L147.517 468.85Z" fill="url(#paint5_linear_2205_5436)"/>
<path d="M170.375 446.309C153.354 449.118 137.813 461.553 133.452 478.233C128.665 496.551 140.462 521.475 158.684 526.655C144.855 517.826 137.919 495.295 144.206 480.137C146.685 474.169 150.865 468.882 156.29 465.372C165.056 459.691 176.576 459.064 186.416 462.564C196.256 466.063 204.479 473.35 210.351 481.988C224.552 502.891 225.126 535.782 208.829 555.951C191.299 577.652 156.12 574.237 133.42 563.897C100.305 548.824 92.3692 519.4 85.7207 486.137C77.4872 444.99 50.6379 418.247 17.5551 394.93C-12.1876 373.974 -47.7384 355.379 -84.3317 350.784L-118.563 346.486L-120.255 378.559C-120.255 378.559 -92.8524 376.24 -92.8312 376.24C-57.5463 373.25 -21.8891 388.675 5.22609 410.386C35.2028 434.406 48.6913 471.935 54.2334 508.88C60.0416 547.579 81.1997 588.204 120.42 601.256C127.112 603.48 134.047 604.841 141.057 605.469C191.224 609.958 235.2 575.258 238.551 524.102C239.785 505.21 235.402 485.573 224.169 470.34C212.925 455.096 194.384 444.852 175.459 445.778C173.757 445.863 172.045 446.043 170.364 446.32L170.375 446.309Z" fill="url(#paint6_linear_2205_5436)"/>
</g>
<g clip-path="url(#clip3_2205_5436)">
<path d="M1425.33 335.61C1425.33 335.61 1436.2 390.709 1437.6 395.334C1438.99 399.968 1444.77 423.012 1463.7 437.563V392.479C1463.7 392.479 1448 353.86 1440.43 331.83L1439.83 331.333C1442.35 329.841 1444.42 327.693 1445.12 324.908C1438.37 315.062 1431.61 305.216 1424.86 295.379C1423.79 293.818 1422.71 292.246 1421.3 290.983C1419.81 289.651 1418.01 288.726 1416.2 287.87C1403.11 281.674 1387.86 278.621 1374.04 282.947C1364.87 285.821 1356.88 291.769 1350.53 298.96C1337.68 313.5 1329.15 333.054 1327.66 352.408C1326.9 362.224 1329.68 371.961 1328.81 381.748C1328.36 386.909 1326.69 392.111 1323.21 395.96C1319.38 400.197 1313.66 402.405 1307.96 402.892C1300.55 403.519 1292.57 401.132 1287.92 395.334C1283.02 389.227 1282.85 379.759 1286.26 372.906C1288.66 368.062 1294.11 363.716 1299.67 366.024C1301.39 366.74 1304.25 368.56 1304.87 370.628C1305.11 371.414 1306.17 371.553 1306.49 370.797C1306.63 370.459 1306.74 370.061 1306.79 369.534C1307.73 361.17 1297.03 355.819 1290.02 357.391C1282.2 359.141 1276.19 368.222 1274.67 375.631C1270.5 395.801 1280.2 409.367 1296.34 416.07C1308.06 420.944 1322.01 418.656 1332.42 411.754C1340.2 406.602 1346.06 398.735 1348 389.555C1352.35 369.117 1336.19 340.533 1355.45 324.073C1361.86 318.602 1370.44 316.146 1378.55 314.555C1388.95 312.506 1399.13 311.044 1408.96 316.166C1416.67 320.174 1422.69 327.315 1425.31 335.59L1425.33 335.61Z" fill="url(#paint7_linear_2205_5436)"/>
<path d="M1463.7 327.245C1463.9 327.205 1454.87 310.387 1454.21 309.403C1446.31 297.677 1435.79 287.443 1422.92 281.326C1398.52 269.719 1367.27 272.842 1347.84 292.306C1333.67 306.509 1326.29 327.593 1327.22 347.495C1327.3 349.146 1327.44 350.787 1327.65 352.428C1327.32 349.832 1328.99 345.913 1329.66 343.467C1331.58 336.435 1334.14 329.543 1337.48 323.058C1345.32 307.821 1359.34 295.359 1375.97 290.575C1393.36 285.573 1411.19 293.012 1424.25 304.41C1428.53 308.15 1434.44 312.496 1434.8 318.702C1435.44 329.831 1440.42 331.83 1440.42 331.83C1440.42 331.83 1445.03 381.3 1463.69 392.479V327.245" fill="url(#paint8_linear_2205_5436)"/>
</g>
<defs>
<linearGradient id="paint0_linear_2205_5436" x1="1054.85" y1="894.092" x2="856.228" y2="550.073" gradientUnits="userSpaceOnUse">
<stop stop-color="#605ED6"/>
<stop offset="1" stop-color="#5C9AD2"/>
</linearGradient>
<linearGradient id="paint1_linear_2205_5436" x1="1082.91" y1="881.196" x2="917.441" y2="594.587" gradientUnits="userSpaceOnUse">
<stop stop-color="#605ED6"/>
<stop offset="1" stop-color="#5C9AD2"/>
</linearGradient>
<linearGradient id="paint2_linear_2205_5436" x1="348.917" y1="139.721" x2="297.603" y2="249.765" gradientUnits="userSpaceOnUse">
<stop stop-color="#605ED6"/>
<stop offset="1" stop-color="#5C9AD2"/>
</linearGradient>
<linearGradient id="paint3_linear_2205_5436" x1="456.342" y1="235.65" x2="313.17" y2="542.684" gradientUnits="userSpaceOnUse">
<stop stop-color="#605ED6"/>
<stop offset="1" stop-color="#5C9AD2"/>
</linearGradient>
<linearGradient id="paint4_linear_2205_5436" x1="452.046" y1="165.942" x2="286.982" y2="519.921" gradientUnits="userSpaceOnUse">
<stop stop-color="#605ED6"/>
<stop offset="1" stop-color="#5C9AD2"/>
</linearGradient>
<linearGradient id="paint5_linear_2205_5436" x1="-13.7827" y1="233.112" x2="267.123" y2="514.017" gradientUnits="userSpaceOnUse">
<stop stop-color="#605ED6"/>
<stop offset="1" stop-color="#5C9AD2"/>
</linearGradient>
<linearGradient id="paint6_linear_2205_5436" x1="-2.04438" y1="229.885" x2="280.88" y2="512.81" gradientUnits="userSpaceOnUse">
<stop stop-color="#605ED6"/>
<stop offset="1" stop-color="#5C9AD2"/>
</linearGradient>
<linearGradient id="paint7_linear_2205_5436" x1="1463.73" y1="445.754" x2="1273.67" y2="445.754" gradientUnits="userSpaceOnUse">
<stop stop-color="#605ED6"/>
<stop offset="1" stop-color="#5C9AD2"/>
</linearGradient>
<linearGradient id="paint8_linear_2205_5436" x1="1463.72" y1="398.645" x2="1327.12" y2="398.645" gradientUnits="userSpaceOnUse">
<stop stop-color="#605ED6"/>
<stop offset="1" stop-color="#5C9AD2"/>
</linearGradient>
<clipPath id="clip0_2205_5436">
<rect width="547" height="400" fill="white" transform="translate(1553.6 609.392) rotate(150)"/>
</clipPath>
<clipPath id="clip1_2205_5436">
<rect width="406" height="400" fill="white" transform="translate(96.0469) rotate(25)"/>
</clipPath>
<clipPath id="clip2_2205_5436">
<rect width="179.352" height="400" fill="white" transform="translate(-135.445 363.368) rotate(-45)"/>
</clipPath>
<clipPath id="clip3_2205_5436">
<rect width="163" height="190" fill="white" transform="matrix(0 1 -1 0 1463.7 274.563)"/>
</clipPath>
</defs>
</svg>
