<svg width="127" height="38" viewBox="0 0 127 38" fill="none" xmlns="http://www.w3.org/2000/svg">
<path d="M21.5391 12.5547L20.8555 17.0664C20.6081 18.694 20.1914 20.2565 19.6055 21.7539C19.0326 23.2513 18.2643 24.5794 17.3008 25.7383C16.3372 26.8971 15.1654 27.8086 13.7852 28.4727C12.4049 29.1237 10.8164 29.4297 9.01953 29.3906C7.30078 29.3516 5.86198 28.9805 4.70312 28.2773C3.54427 27.5742 2.63932 26.6432 1.98828 25.4844C1.33724 24.3255 0.907552 23.0234 0.699219 21.5781C0.503906 20.1328 0.497396 18.6549 0.679688 17.1445L1.36328 12.6133C1.61068 10.9987 2.02083 9.44271 2.59375 7.94531C3.17969 6.44792 3.96094 5.10677 4.9375 3.92188C5.91406 2.72396 7.09245 1.78646 8.47266 1.10938C9.85286 0.432292 11.4544 0.119792 13.2773 0.171875C14.9961 0.210938 16.4284 0.595052 17.5742 1.32422C18.7331 2.04036 19.6315 2.99089 20.2695 4.17578C20.9206 5.34766 21.3438 6.66276 21.5391 8.12109C21.7344 9.57943 21.7344 11.0573 21.5391 12.5547ZM14.8008 17.1445L15.4648 12.5352C15.543 11.9232 15.6146 11.2135 15.6797 10.4062C15.7448 9.59896 15.7188 8.8112 15.6016 8.04297C15.4974 7.26172 15.2305 6.61068 14.8008 6.08984C14.3841 5.55599 13.7331 5.26953 12.8477 5.23047C11.832 5.16536 10.9987 5.36719 10.3477 5.83594C9.69661 6.29167 9.17578 6.90365 8.78516 7.67188C8.40755 8.42708 8.11458 9.24089 7.90625 10.1133C7.71094 10.9727 7.5612 11.793 7.45703 12.5742L6.79297 17.1641C6.71484 17.776 6.64323 18.4857 6.57812 19.293C6.52604 20.0872 6.55208 20.8685 6.65625 21.6367C6.77344 22.3919 7.04036 23.0234 7.45703 23.5312C7.88672 24.0391 8.55078 24.3125 9.44922 24.3516C10.4258 24.4036 11.2331 24.2083 11.8711 23.7656C12.5221 23.3099 13.043 22.7109 13.4336 21.9688C13.8242 21.2266 14.1172 20.4323 14.3125 19.5859C14.5208 18.7266 14.6836 17.9128 14.8008 17.1445ZM30.4844 24.625C31.0964 24.638 31.5651 24.5013 31.8906 24.2148C32.2292 23.9154 32.4701 23.5312 32.6133 23.0625C32.7695 22.5938 32.8802 22.1055 32.9453 21.5977L38.3555 21.5781C38.2643 23.0885 37.8672 24.4427 37.1641 25.6406C36.4609 26.8255 35.5169 27.7565 34.332 28.4336C33.1471 29.1107 31.7734 29.4362 30.2109 29.4102C28.7396 29.3711 27.5221 29.0716 26.5586 28.5117C25.6081 27.9518 24.8724 27.1966 24.3516 26.2461C23.8307 25.2956 23.4922 24.2279 23.3359 23.043C23.1797 21.8451 23.1732 20.6016 23.3164 19.3125L23.5508 17.5547C23.7331 16.2135 24.0456 14.9245 24.4883 13.6875C24.931 12.4505 25.5299 11.3633 26.2852 10.4258C27.0534 9.47526 27.9974 8.73958 29.1172 8.21875C30.237 7.6849 31.5586 7.4375 33.082 7.47656C34.7227 7.51562 36.0312 7.92578 37.0078 8.70703C37.9844 9.47526 38.6745 10.4909 39.0781 11.7539C39.4818 13.0039 39.6445 14.3776 39.5664 15.875L34.0977 15.8555C34.1367 15.3607 34.1562 14.8464 34.1562 14.3125C34.1693 13.7656 34.0586 13.2969 33.8242 12.9062C33.5898 12.5026 33.1536 12.2878 32.5156 12.2617C31.7995 12.2357 31.2396 12.3984 30.8359 12.75C30.4323 13.0885 30.1328 13.5378 29.9375 14.0977C29.7422 14.6445 29.612 15.2305 29.5469 15.8555C29.4818 16.4805 29.4167 17.0469 29.3516 17.5547L29.1758 19.332C29.1237 19.7227 29.0456 20.2109 28.9414 20.7969C28.8503 21.3828 28.7982 21.9688 28.7852 22.5547C28.7852 23.1276 28.9023 23.6094 29.1367 24C29.3841 24.3906 29.8333 24.599 30.4844 24.625ZM53.082 7.86719L52.3008 12.2227H41.6172L42.3984 7.86719H53.082ZM45.4844 2.63281H51.2852L47.9258 22.3789C47.8737 22.7174 47.8477 23.043 47.8477 23.3555C47.8477 23.6549 47.9193 23.9089 48.0625 24.1172C48.2188 24.3125 48.4987 24.4232 48.9023 24.4492C49.1367 24.4492 49.3646 24.4362 49.5859 24.4102C49.8073 24.3841 50.0221 24.3581 50.2305 24.332L49.7617 28.8633C49.293 29.0456 48.8112 29.1758 48.3164 29.2539C47.8216 29.332 47.3138 29.3711 46.793 29.3711C45.556 29.3451 44.5729 29.0456 43.8438 28.4727C43.1146 27.8867 42.6068 27.1185 42.3203 26.168C42.0469 25.2044 41.9622 24.1562 42.0664 23.0234L45.4844 2.63281ZM52.6328 19.2734L52.8281 17.6328C52.9974 16.2786 53.3229 14.9896 53.8047 13.7656C54.2865 12.5417 54.9245 11.4479 55.7188 10.4844C56.526 9.50781 57.5026 8.7526 58.6484 8.21875C59.7943 7.6849 61.1159 7.4375 62.6133 7.47656C64.0456 7.5026 65.237 7.80859 66.1875 8.39453C67.151 8.96745 67.9062 9.73568 68.4531 10.6992C69.013 11.6628 69.3841 12.7435 69.5664 13.9414C69.7487 15.1263 69.7747 16.3503 69.6445 17.6133L69.4492 19.293C69.2799 20.6211 68.9544 21.9036 68.4727 23.1406C68.0039 24.3646 67.3594 25.4583 66.5391 26.4219C65.7318 27.3724 64.7617 28.1146 63.6289 28.6484C62.4961 29.1823 61.181 29.4297 59.6836 29.3906C58.2513 29.3646 57.0534 29.0651 56.0898 28.4922C55.1393 27.9062 54.3841 27.138 53.8242 26.1875C53.2773 25.224 52.9062 24.1497 52.7109 22.9648C52.5286 21.7669 52.5026 20.5365 52.6328 19.2734ZM58.668 17.6133L58.4727 19.3125C58.4466 19.7031 58.401 20.1849 58.3359 20.7578C58.2839 21.3307 58.2839 21.9102 58.3359 22.4961C58.388 23.082 58.5508 23.5768 58.8242 23.9805C59.1107 24.3711 59.5599 24.5794 60.1719 24.6055C60.875 24.6576 61.4414 24.5078 61.8711 24.1562C62.3138 23.8047 62.6523 23.349 62.8867 22.7891C63.1341 22.2161 63.3099 21.6172 63.4141 20.9922C63.5182 20.3672 63.6029 19.7878 63.668 19.2539L63.8633 17.5742C63.8893 17.1966 63.9284 16.7148 63.9805 16.1289C64.0326 15.543 64.026 14.9635 63.9609 14.3906C63.9089 13.8177 63.7396 13.3294 63.4531 12.9258C63.1797 12.5221 62.737 12.3008 62.125 12.2617C61.4479 12.2227 60.8945 12.3854 60.4648 12.75C60.0482 13.1016 59.7161 13.5638 59.4688 14.1367C59.2214 14.7096 59.0391 15.3086 58.9219 15.9336C58.8047 16.5586 58.7201 17.1185 58.668 17.6133ZM79.4492 12.2422L75.1328 37.125H69.3516L74.4297 7.86719H79.7617L79.4492 12.2422ZM88.9219 17.5742L88.707 19.2148C88.5768 20.3477 88.349 21.5195 88.0234 22.7305C87.6979 23.9414 87.2292 25.0612 86.6172 26.0898C86.0182 27.1185 85.237 27.9388 84.2734 28.5508C83.3229 29.1628 82.1445 29.4427 80.7383 29.3906C79.5664 29.3516 78.6419 28.9805 77.9648 28.2773C77.2878 27.5742 76.793 26.7018 76.4805 25.6602C76.168 24.6185 75.9727 23.5378 75.8945 22.418C75.8164 21.2982 75.7969 20.3086 75.8359 19.4492L76.0703 17.6523C76.2396 16.6888 76.487 15.6211 76.8125 14.4492C77.151 13.2643 77.6068 12.138 78.1797 11.0703C78.7656 10.0026 79.4948 9.1237 80.3672 8.43359C81.2396 7.74349 82.2943 7.41797 83.5312 7.45703C84.9115 7.48307 85.9922 7.82161 86.7734 8.47266C87.5677 9.11068 88.1341 9.9375 88.4727 10.9531C88.8112 11.9557 89 13.043 89.0391 14.2148C89.0781 15.3867 89.0391 16.5065 88.9219 17.5742ZM82.9258 19.2344L83.1016 17.5352C83.1406 17.1315 83.1927 16.6432 83.2578 16.0703C83.3359 15.4974 83.3555 14.9245 83.3164 14.3516C83.2904 13.7656 83.1406 13.2773 82.8672 12.8867C82.6068 12.4961 82.1641 12.2878 81.5391 12.2617C80.875 12.2357 80.3281 12.3659 79.8984 12.6523C79.4688 12.9258 79.1237 13.3034 78.8633 13.7852C78.6159 14.2539 78.4271 14.7682 78.2969 15.3281C78.1797 15.888 78.0885 16.4284 78.0234 16.9492L77.6133 20.1328C77.5482 20.7318 77.5091 21.3698 77.4961 22.0469C77.4961 22.724 77.6393 23.3099 77.9258 23.8047C78.2122 24.2995 78.7591 24.5664 79.5664 24.6055C80.2695 24.6315 80.8294 24.4688 81.2461 24.1172C81.6758 23.7656 82.0013 23.3099 82.2227 22.75C82.457 22.1771 82.6133 21.5781 82.6914 20.9531C82.7826 20.3281 82.8607 19.7552 82.9258 19.2344ZM100.719 23.5898L103.453 7.86719H109.273L105.602 29H100.191L100.719 23.5898ZM101.891 19.4688L103.238 19.4297C103.134 20.4714 102.945 21.5846 102.672 22.7695C102.398 23.9414 101.995 25.0352 101.461 26.0508C100.927 27.0664 100.217 27.8932 99.332 28.5312C98.4466 29.1562 97.3464 29.4492 96.0312 29.4102C94.9375 29.3841 94.0521 29.1367 93.375 28.668C92.7109 28.1992 92.2031 27.5807 91.8516 26.8125C91.5 26.0312 91.2786 25.1849 91.1875 24.2734C91.1094 23.349 91.1159 22.4375 91.207 21.5391L93.4922 7.86719H99.293L97.0078 21.6172C96.9688 21.8646 96.9492 22.1576 96.9492 22.4961C96.9492 22.8346 96.9818 23.1602 97.0469 23.4727C97.112 23.7721 97.2357 24.026 97.418 24.2344C97.6133 24.4427 97.8997 24.5534 98.2773 24.5664C99.2148 24.6185 99.9245 24.3711 100.406 23.8242C100.901 23.2643 101.246 22.5807 101.441 21.7734C101.65 20.9531 101.799 20.1849 101.891 19.4688ZM119.098 23.1602C119.189 22.6914 119.065 22.3008 118.727 21.9883C118.388 21.6758 117.991 21.4023 117.535 21.168C117.079 20.9336 116.702 20.7253 116.402 20.543C115.712 20.2044 115.061 19.8333 114.449 19.4297C113.837 19.026 113.297 18.5703 112.828 18.0625C112.359 17.5547 111.995 16.9753 111.734 16.3242C111.487 15.6602 111.389 14.9049 111.441 14.0586C111.493 13.0039 111.741 12.0729 112.184 11.2656C112.639 10.4453 113.232 9.7487 113.961 9.17578C114.69 8.60286 115.51 8.17318 116.422 7.88672C117.346 7.58724 118.31 7.44401 119.312 7.45703C120.667 7.48307 121.871 7.76302 122.926 8.29688C123.98 8.81771 124.807 9.57943 125.406 10.582C126.005 11.5716 126.298 12.7565 126.285 14.1367H120.504C120.517 13.7331 120.504 13.349 120.465 12.9844C120.439 12.6068 120.322 12.2943 120.113 12.0469C119.905 11.7995 119.547 11.6823 119.039 11.6953C118.648 11.7083 118.303 11.8125 118.004 12.0078C117.704 12.1901 117.464 12.4375 117.281 12.75C117.099 13.0625 116.969 13.3945 116.891 13.7461C116.826 14.0716 116.858 14.3646 116.988 14.625C117.132 14.8724 117.32 15.1003 117.555 15.3086C117.802 15.5039 118.069 15.6797 118.355 15.8359C118.642 15.9922 118.902 16.1224 119.137 16.2266C120.152 16.6823 121.09 17.1901 121.949 17.75C122.809 18.3099 123.492 19 124 19.8203C124.508 20.6276 124.736 21.6628 124.684 22.9258C124.618 24.0195 124.339 24.9766 123.844 25.7969C123.362 26.6042 122.724 27.2812 121.93 27.8281C121.148 28.362 120.276 28.7591 119.312 29.0195C118.349 29.293 117.372 29.4167 116.383 29.3906C115.016 29.3516 113.798 29.0391 112.73 28.4531C111.676 27.8672 110.842 27.0599 110.23 26.0312C109.632 24.9896 109.326 23.7852 109.312 22.418L114.742 22.4375C114.742 22.9453 114.781 23.4076 114.859 23.8242C114.951 24.2279 115.139 24.5534 115.426 24.8008C115.725 25.0352 116.161 25.1523 116.734 25.1523C117.164 25.1523 117.542 25.0742 117.867 24.918C118.193 24.7617 118.46 24.5339 118.668 24.2344C118.876 23.9349 119.02 23.5768 119.098 23.1602Z" fill="#111111"/>
</svg>
