<svg width="24" height="24" viewBox="0 0 24 24" fill="none" xmlns="http://www.w3.org/2000/svg">
<g clip-path="url(#clip0_579_6987)">
<path fill-rule="evenodd" clip-rule="evenodd" d="M12.0003 13.414L17.6573 19.071C17.8459 19.2532 18.0985 19.3539 18.3607 19.3517C18.6229 19.3494 18.8737 19.2442 19.0591 19.0588C19.2445 18.8734 19.3497 18.6226 19.352 18.3604C19.3543 18.0982 19.2535 17.8456 19.0713 17.657L13.4143 12L19.0713 6.343C19.2535 6.15439 19.3543 5.90179 19.352 5.6396C19.3497 5.3774 19.2445 5.12659 19.0591 4.94118C18.8737 4.75577 18.6229 4.6506 18.3607 4.64832C18.0985 4.64604 17.8459 4.74684 17.6573 4.929L12.0003 10.586L6.34331 4.929C6.15386 4.75134 5.90272 4.65436 5.64304 4.65858C5.38336 4.6628 5.1355 4.76788 4.95192 4.95159C4.76834 5.1353 4.66343 5.38323 4.6594 5.64292C4.65537 5.9026 4.75252 6.15367 4.93031 6.343L10.5863 12L4.92931 17.657C4.8338 17.7492 4.75762 17.8596 4.70521 17.9816C4.6528 18.1036 4.62522 18.2348 4.62406 18.3676C4.62291 18.5004 4.64821 18.6321 4.69849 18.755C4.74877 18.8778 4.82302 18.9895 4.91692 19.0834C5.01081 19.1773 5.12246 19.2515 5.24536 19.3018C5.36825 19.3521 5.49993 19.3774 5.63271 19.3762C5.76549 19.3751 5.89671 19.3475 6.01872 19.2951C6.14072 19.2427 6.25106 19.1665 6.34331 19.071L12.0003 13.414Z" fill="#111111"/>
</g>
<defs>
<clipPath id="clip0_579_6987">
<rect width="24" height="24" fill="white"/>
</clipPath>
</defs>
</svg>
