<svg width="16" height="16" viewBox="0 0 16 16" fill="none" xmlns="http://www.w3.org/2000/svg">
<path fill-rule="evenodd" clip-rule="evenodd" d="M8.00007 9.41391L13.6571 15.0709C13.8457 15.2531 14.0983 15.3539 14.3605 15.3516C14.6227 15.3493 14.8735 15.2441 15.0589 15.0587C15.2443 14.8733 15.3495 14.6225 15.3517 14.3603C15.354 14.0981 15.2532 13.8455 15.0711 13.6569L9.41407 7.99991L15.0711 2.34291C15.2532 2.1543 15.354 1.9017 15.3517 1.6395C15.3495 1.37731 15.2443 1.1265 15.0589 0.941087C14.8735 0.755679 14.6227 0.65051 14.3605 0.648231C14.0983 0.645953 13.8457 0.746747 13.6571 0.928905L8.00007 6.58591L2.34307 0.928905C2.15362 0.75125 1.90248 0.654271 1.6428 0.658487C1.38311 0.662704 1.13526 0.767787 0.951677 0.951499C0.768094 1.13521 0.663187 1.38314 0.659154 1.64283C0.655121 1.90251 0.752278 2.15358 0.930067 2.34291L6.58607 7.99991L0.929067 13.6569C0.833557 13.7492 0.757375 13.8595 0.704966 13.9815C0.652557 14.1035 0.624971 14.2347 0.623817 14.3675C0.622663 14.5003 0.647965 14.632 0.698246 14.7549C0.748527 14.8778 0.82278 14.9894 0.916672 15.0833C1.01057 15.1772 1.12222 15.2514 1.24511 15.3017C1.36801 15.352 1.49969 15.3773 1.63247 15.3762C1.76525 15.375 1.89647 15.3474 2.01847 15.295C2.14048 15.2426 2.25082 15.1664 2.34307 15.0709L8.00007 9.41391Z" fill="#111111"/>
</svg>
