<svg width="45" height="40" viewBox="0 0 45 40" fill="none" xmlns="http://www.w3.org/2000/svg">
<path d="M3.47363 19.3902C3.47363 16.7335 3.88614 14.3829 4.71321 12.3384C5.54028 10.2938 6.67054 8.58242 8.10605 7.20205C9.5395 5.82167 11.2266 4.77441 13.1695 4.0582C15.1104 3.34199 17.21 2.98596 19.4726 2.98596C21.7331 2.98596 23.8348 3.34407 25.7757 4.0582C27.7165 4.77441 29.4119 5.82167 30.8639 7.20205C32.3138 8.58242 33.4544 10.2938 34.2815 12.3384C35.1086 14.3829 35.5211 16.7335 35.5211 19.3902C35.5211 22.0468 35.1168 24.4078 34.3062 26.469C33.4957 28.5302 32.3737 30.25 30.9402 31.6303C29.5047 33.0107 27.8093 34.058 25.852 34.7742C23.8946 35.4904 21.7682 35.8464 19.4726 35.8464C17.177 35.8464 15.0506 35.48 13.0932 34.7471C11.1359 34.0142 9.44875 32.9503 8.02974 31.5533C6.61279 30.1563 5.49903 28.4365 4.68846 26.392C3.87995 24.3474 3.47363 22.0156 3.47363 19.3902ZM12.5879 19.3902C12.5879 22.4903 13.2129 24.8076 14.4607 26.3399C15.7085 27.8723 17.3791 28.6385 19.4726 28.6385C21.5991 28.6385 23.2862 27.8723 24.5361 26.3399C25.7839 24.8076 26.4089 22.4903 26.4089 19.3902C26.4089 16.3234 25.7922 14.0248 24.5608 12.4904C23.3274 10.958 21.6506 10.1897 19.5242 10.1897C17.4307 10.1897 15.7518 10.9476 14.4875 12.4633C13.219 13.9832 12.5879 16.29 12.5879 19.3902Z" fill="url(#paint0_linear_579_6993)"/>
<path d="M12.0679 34.2309C11.6224 33.0379 11.3151 31.7492 11.5172 30.4916C11.7194 29.232 12.5217 28.012 13.7221 27.6143C14.4213 27.3832 15.139 27.4436 15.8609 27.6226C15.8609 27.6226 17.9956 29.2299 21.2173 28.445C21.2173 28.445 21.2482 28.1265 21.1946 27.8808C20.4418 24.4184 17.5522 21.9346 14.2583 21.2246C8.33065 19.9462 1.54496 24.5954 1.66665 31.008C1.69965 32.7756 2.21735 34.5495 3.20117 36.0173C5.42663 39.3381 9.68573 40.6956 13.4704 39.6588C15.599 39.0758 17.284 37.6225 18.5876 35.8258C14.0005 35.4801 12.0679 34.2309 12.0679 34.2309Z" fill="url(#paint1_linear_579_6993)"/>
<path d="M11.3769 17.6582C12.0616 18.0184 12.6206 18.1954 12.6206 18.1954C12.6206 18.1954 14.2046 17.5646 14.8728 15.8427C16.0774 12.7384 15.671 8.99081 10.7416 6.25712C8.02528 4.75182 4.39937 4.93712 2.14298 7.0816C-0.113417 9.22608 -0.674421 12.9758 0.874531 15.6845C1.26228 16.3632 2.71636 17.6999 3.51868 17.9247C3.51868 17.9247 3.96831 17.2314 5.17076 16.9212C7.15284 16.4111 9.55774 16.7026 11.3769 17.6582Z" fill="url(#paint2_linear_579_6993)"/>
<path d="M22.7326 23.4213C21.6972 22.0888 21.2496 20.317 21.7075 18.666C23.3678 12.6864 32.3398 14.5581 36.7701 13.0445C38.8924 12.32 40.5713 10.773 40.4764 8.36831C40.3836 6.0198 38.6903 3.42977 36.2978 2.93841C35.3077 2.73438 34.0084 3.17368 33.8021 4.29797C33.7361 4.66232 33.8454 5.04749 34.064 5.34314C34.2311 5.57216 34.0063 5.87614 33.7361 5.79494C33.336 5.6721 32.975 5.44724 32.7234 5.11828C31.6385 3.7046 32.3666 1.70586 33.9403 0.779362C36.7639 -0.882086 40.6043 0.233874 42.7328 2.98005C43.5124 3.98567 44.1168 5.13911 44.4901 6.36125C45.4409 9.48427 45.0655 13.0383 43.3516 15.8261C40.9425 19.7507 36.3514 20.394 32.2037 20.8333C30.3556 21.0291 28.5076 21.46 26.7338 22.0159C26.4905 22.093 26.1935 22.2554 26.1935 22.2554C26.0862 22.9029 26.0017 23.7315 25.3623 25.0224C24.3145 24.8121 23.4318 24.3207 22.7326 23.4213Z" fill="url(#paint3_linear_579_6993)"/>
<defs>
<linearGradient id="paint0_linear_579_6993" x1="15.025" y1="34.4236" x2="24.1218" y2="4.48675" gradientUnits="userSpaceOnUse">
<stop offset="0.00128142" stop-color="#C04FBA"/>
<stop offset="0.9955" stop-color="#EF5C54"/>
</linearGradient>
<linearGradient id="paint1_linear_579_6993" x1="8.69906" y1="22.4487" x2="12.5891" y2="33.1445" gradientUnits="userSpaceOnUse">
<stop offset="0.00415427" stop-color="#46ABBA"/>
<stop offset="1" stop-color="#4E4CBF"/>
</linearGradient>
<linearGradient id="paint2_linear_579_6993" x1="8.53506" y1="5.89629" x2="7.18121" y2="16.8622" gradientUnits="userSpaceOnUse">
<stop offset="0.00415427" stop-color="#46ABBA"/>
<stop offset="1" stop-color="#4E4CBF"/>
</linearGradient>
<linearGradient id="paint3_linear_579_6993" x1="26.7831" y1="8.38059" x2="37.6717" y2="16.9329" gradientUnits="userSpaceOnUse">
<stop offset="0.00415427" stop-color="#46ABBA"/>
<stop offset="1" stop-color="#4E4CBF"/>
</linearGradient>
</defs>
</svg>
